<svg xmlns="http://www.w3.org/2000/svg" enable-background="new 0 0 24 24" viewBox="0 0 24 24"><path d="M12.952,10.35c-0.843,0.383-1.465,0.282-2.223,0.727c-0.756,0.443-1.138,1.06-1.138,1.06L6.51,20.176c-0.333,0.907,0.161,1.971,1.078,2.326c0.92,0.355,1.955-0.115,2.311-1.015L14.718,8.9C14.718,8.9,13.794,9.966,12.952,10.35z M9.021,16.757v0.009c-0.146,0.065-0.32,0-0.38-0.149c-0.067-0.146,0-0.321,0.147-0.382c0.148-0.067,0.321,0,0.381,0.147C9.241,16.527,9.177,16.684,9.021,16.757z M10.147,18.853c-0.1,0.041-0.216,0-0.255-0.1c-0.04-0.093,0-0.208,0.101-0.255c0.1-0.039,0.216,0,0.255,0.101C10.288,18.699,10.248,18.813,10.147,18.853z M10.016,15.986c-0.287,0.121-0.603,0-0.733-0.274l0.012,0.001c-0.118-0.277,0-0.599,0.275-0.729c0.273-0.119,0.589,0,0.719,0.274C10.405,15.536,10.289,15.858,10.016,15.986z M10.536,12.573c-0.1,0.04-0.216,0-0.254-0.1c-0.042-0.102,0.006-0.218,0.099-0.257c0.101-0.04,0.217,0,0.255,0.101C10.677,12.417,10.636,12.534,10.536,12.573z M11.855,14.07c-0.149,0.067-0.323,0-0.382-0.149c-0.071-0.146,0-0.321,0.148-0.382v0.003c0.147-0.071,0.321,0,0.381,0.144C12.068,13.834,12.001,14.009,11.855,14.07z"/><path d="M12.728,0.934c-0.011,0.044-0.011,0.088,0,0.132c0,0,0.143,0.938-0.022,1.358L5.905,20.122c-0.486,1.303,0.166,2.749,1.468,3.246c1.303,0.497,2.749-0.144,3.268-1.435l6.801-17.697c0.132-0.342,0.894-1.016,0.894-1.016c0.033-0.033,0.066-0.066,0.088-0.099V3.109c0-0.011,0.011-0.011,0.011-0.022c0.177-0.453-0.96-1.314-2.528-1.921c-1.568-0.607-2.992-0.729-3.168-0.265C12.739,0.901,12.728,0.912,12.728,0.934z" enable-background="new" opacity=".1"/><linearGradient id="a" x1="-67.303" x2="-67.293" y1="133.982" y2="133.98" gradientTransform="matrix(561.0148 0 0 -1011.5933 37766.61 135546.234)" gradientUnits="userSpaceOnUse"><stop offset="0" stop-color="#919191"/><stop offset="1" stop-color="#fff"/></linearGradient><path fill="url(#a)" d="M12.529,0.78c-0.011,0.044-0.011,0.088,0,0.133c0,0,0.144,0.938-0.022,1.358L5.707,19.967c-0.486,1.303,0.166,2.749,1.468,3.246s2.749-0.143,3.268-1.435l6.801-17.697c0.133-0.342,0.894-1.016,0.894-1.016c0.033-0.033,0.066-0.066,0.088-0.099V2.954c0-0.011,0.011-0.011,0.011-0.022c0.177-0.453-0.96-1.314-2.528-1.921c-1.568-0.607-2.992-0.729-3.169-0.265C12.541,0.758,12.541,0.769,12.529,0.78L12.529,0.78z"/><linearGradient id="b" x1="-69.036" x2="-69.027" y1="134.562" y2="134.559" gradientTransform="matrix(373.6914 0 0 -614.1078 25807.02 82650.406)" gradientUnits="userSpaceOnUse"><stop offset="0" stop-color="#900"/><stop offset="1" stop-color="#e80000"/></linearGradient><path fill="url(#b)" d="M15.244,8.892l-5.116,13.291c-0.379,0.954-1.472,1.449-2.449,1.069c-0.977-0.379-1.495-1.495-1.138-2.449l3.265-8.497c0,0,0.402-0.655,1.207-1.127c0.805-0.472,1.46-0.368,2.345-0.759C14.255,10.031,15.244,8.892,15.244,8.892L15.244,8.892z"/><path fill="#333" d="M17.054,2.563c0.098-0.255-0.607-0.765-1.573-1.138c-0.967-0.373-1.83-0.469-1.928-0.213c-0.098,0.255,0.607,0.765,1.573,1.138C16.093,2.723,16.956,2.819,17.054,2.563L17.054,2.563z"/><path fill="#FFF" d="M13.042,1.098c0,0,0.143,0.936-0.022,1.354L6.263,20.099c-0.483,1.299,0.165,2.741,1.459,3.237c0.219,0.088,0.45,0.143,0.68,0.154c-0.889-0.679-1.231-1.857-0.845-2.906l6.625-17.295C14.182,3.289,13.272,2.441,13.042,1.098L13.042,1.098z" enable-background="new" opacity=".3"/><g opacity=".5" transform="translate(420.01 104.5)"><ellipse cx="-409.698" cy="-92.206" fill="#FFF" rx=".197" ry=".198"/><ellipse cx="-408.415" cy="-90.786" fill="#FFF" rx=".296" ry=".297"/><ellipse cx="-410.378" cy="-89.091" fill="#FFF" rx=".559" ry=".561"/><ellipse cx="-411.277" cy="-88.056" fill="#FFF" rx=".296" ry=".297"/><ellipse cx="-410.104" cy="-85.854" fill="#FFF" rx=".197" ry=".198"/></g><path d="M8.771,24c-0.404,0-0.802-0.078-1.184-0.231c-1.518-0.613-2.362-2.281-2.01-3.924c0.002-0.077,0.018-0.154,0.046-0.23l0.08-0.212l6.197-17.024c0.021-0.091,0.016-0.466-0.033-0.832c-0.03-0.165-0.022-0.349,0.028-0.528l0.002,0c0.012-0.055,0.03-0.109,0.054-0.159C12.048,0.573,12.415,0,13.53,0c0.696,0,1.599,0.21,2.542,0.592c0.781,0.319,1.486,0.715,1.989,1.118c1.016,0.803,1.029,1.515,0.861,1.97c-0.019,0.051-0.043,0.1-0.073,0.146c-0.018,0.028-0.045,0.066-0.073,0.102c-0.052,0.074-0.139,0.19-0.268,0.292c-0.222,0.205-0.469,0.498-0.518,0.586l-6.243,17.236c-0.029,0.08-0.071,0.154-0.124,0.219c-0.573,1.039-1.604,1.691-2.744,1.731C8.843,23.998,8.807,24,8.771,24z M7.078,20.006c-0.003,0.021-0.008,0.043-0.014,0.064c-0.245,0.949,0.231,1.962,1.084,2.307c0.177,0.071,0.36,0.112,0.544,0.121c0.025-0.002,0.051-0.004,0.076-0.004c0.662-0.002,1.269-0.403,1.585-1.045c0.01-0.021,0.021-0.041,0.034-0.061l6.206-17.127c0.127-0.373,0.609-0.866,0.84-1.088c-0.054-0.067-0.148-0.164-0.308-0.291c-0.391-0.313-0.979-0.641-1.619-0.902C14.763,1.68,14.023,1.5,13.53,1.5c-0.065,0-0.118,0.003-0.158,0.008c0.042,0.39,0.077,1.002-0.063,1.385L7.078,20.006z M13.247,1.535L13.247,1.535L13.247,1.535z"/><path d="M9.006 13.256c-.238 0-.472-.113-.617-.323-.236-.34-.151-.808.19-1.043l.236-.164c.801-.554 1.557-1.078 1.877-1.27.476-.292.909-.394 1.292-.483.288-.067.537-.125.822-.262.515-.247 1.171-.961 1.38-1.216l1.556-1.699c.279-.305.754-.327 1.06-.046.305.28.326.754.046 1.06l-1.529 1.668c-.071.088-.958 1.151-1.864 1.585-.433.208-.803.294-1.129.37-.324.076-.579.135-.855.305-.285.17-1.055.704-1.8 1.22l-.237.164C9.302 13.213 9.153 13.256 9.006 13.256zM10.019 20.438c-.122 0-.245-.024-.358-.072-.232-.098-.417-.29-.505-.526-.179-.44.021-.969.464-1.186.276-.117.542-.116.773-.015.232.101.409.287.497.525.181.473-.039 1-.501 1.198C10.271 20.412 10.145 20.438 10.019 20.438zM9.796 18.983c-.276.119-.416.436-.312.709.052.139.166.259.31.321.142.062.303.063.443.005l-.146-.347.151.344c.299-.148.417-.457.308-.724-.048-.129-.164-.249-.31-.31C10.1 18.924 9.938 18.922 9.796 18.983zM9.793 18.984c-.001 0-.002.001-.003.001C9.792 18.985 9.792 18.985 9.793 18.984zM9.794 18.984L9.794 18.984 9.794 18.984zM9.803 18.98c-.001 0-.002.001-.004.001C9.8 18.981 9.801 18.981 9.803 18.98zM10.639 17.568c-.481 0-.934-.279-1.149-.756-.032-.07-.052-.143-.061-.217-.138-.583.136-1.203.677-1.472.324-.149.66-.161.97-.045.318.12.571.36.713.677.264.666-.008 1.394-.605 1.689-.009.004-.019.009-.028.013C10.986 17.533 10.811 17.568 10.639 17.568zM10.519 16.1c-.083.042-.151.139-.112.238.008.019.017.035.026.05l.187-.084L10.519 16.1zM10.638 16.068c-.032 0-.063.006-.092.019l.092.208.218-.098C10.822 16.118 10.729 16.068 10.638 16.068z"/><path d="M11.001 13.876c-.127 0-.254-.026-.372-.078-.232-.102-.413-.297-.497-.537-.176-.444.044-.989.501-1.186.24-.102.509-.101.741 0 .23.1.411.293.498.531.18.461-.044 1.004-.507 1.197C11.248 13.852 11.125 13.876 11.001 13.876zM10.784 12.419c-.282.12-.424.438-.316.715.047.132.162.253.308.316.14.061.299.064.44.007l-.141-.346.148.343c0 0 .001 0 .001 0 .288-.124.423-.438.314-.715-.043-.125-.158-.249-.306-.314C11.088 12.362 10.928 12.36 10.784 12.419zM10.779 12.422c0 0-.001 0-.002 0C10.778 12.422 10.779 12.422 10.779 12.422zM16.571 4.015c-.582 0-1.255-.231-1.671-.4-.85-.345-2.224-1.07-1.868-2.052.107-.297.389-.495.705-.495l.003.75 0 .001.703.254c.079-.216.012-.407-.032-.465.065.086.422.36 1.055.617C15.96 2.427 16.337 2.5 16.52 2.514c.195-.136.454-.179.694-.089.388.145.585.577.44.965-.086.231-.265.416-.503.521C16.981 3.985 16.782 4.015 16.571 4.015zM16.25 2.864C16.249 2.865 16.249 2.865 16.25 2.864 16.249 2.865 16.249 2.865 16.25 2.864z"/></svg>