<?xml version="1.0" standalone="no"?>
<!DOCTYPE svg PUBLIC "-//W3C//DTD SVG 20010904//EN"
 "http://www.w3.org/TR/2001/REC-SVG-20010904/DTD/svg10.dtd">
<svg version="1.0" xmlns="http://www.w3.org/2000/svg"
 width="800.000000pt" height="800.000000pt" viewBox="0 0 800.000000 800.000000"
 preserveAspectRatio="xMidYMid meet">
<metadata>
Created by potrace 1.14, written by Peter Selinger 2001-2017
</metadata>
<g transform="translate(0.000000,800.000000) scale(0.100000,-0.100000)"
fill="#000000" stroke="none">
<path d="M2075 7989 c-11 -16 5 -160 21 -194 10 -22 12 -23 6 -5 -10 34 -9
148 2 183 6 21 5 27 -7 27 -9 0 -19 -5 -22 -11z"/>
<path d="M2496 7967 c-90 -118 -122 -346 -65 -462 11 -22 17 -31 13 -20 -29
99 -29 204 -1 265 l16 35 -5 -60 c-4 -44 -3 -56 5 -45 8 12 11 6 12 -25 0 -22
3 -34 6 -27 7 18 21 15 28 -7 3 -11 12 -22 21 -25 11 -4 13 0 8 22 -4 23 -4
24 6 9 7 -10 9 -30 6 -45 l-6 -27 16 28 c8 16 16 54 16 87 0 32 4 64 8 70 4 6
23 -29 43 -80 20 -50 57 -123 82 -161 25 -38 45 -71 45 -74 0 -2 -10 -6 -22
-8 -13 -3 62 -4 165 -3 l188 1 5 25 c19 84 41 152 65 200 15 30 39 87 54 125
15 39 44 104 64 145 44 91 47 101 26 75 -19 -22 -76 -142 -160 -332 -10 -24
-23 -43 -27 -43 -17 0 -86 50 -106 77 -25 33 -28 20 -7 -28 8 -19 14 -29 15
-22 0 7 18 2 45 -15 24 -15 43 -31 41 -37 -6 -20 -31 -15 -58 10 -36 33 -35
23 5 -79 l33 -83 -30 18 c-23 14 -32 15 -38 6 -14 -22 -42 7 -67 69 -17 40
-26 86 -29 144 -3 56 -9 88 -18 95 -12 8 -11 21 5 80 11 39 27 87 35 107 19
44 19 48 6 48 -5 0 -21 -39 -36 -87 -41 -139 -37 -134 -68 -85 -14 23 -28 42
-30 42 -7 0 45 -89 55 -95 5 -4 9 -41 9 -84 0 -43 6 -99 14 -124 l14 -47 -47
27 c-153 88 -218 149 -247 234 -19 55 -24 143 -11 192 7 26 6 27 -32 27 -33 0
-44 -5 -65 -33z m397 -297 c4 -41 3 -56 -3 -40 -8 25 -14 117 -6 109 2 -2 6
-33 9 -69z m-336 -32 c-3 -7 -5 -2 -5 12 0 14 2 19 5 13 2 -7 2 -19 0 -25z
m228 -76 c-3 -3 -11 0 -18 7 -9 10 -8 11 6 5 10 -3 15 -9 12 -12z"/>
<path d="M2967 7987 c-3 -8 -8 -36 -11 -63 -5 -47 -5 -46 8 11 14 57 15 82 3
52z"/>
<path d="M3374 7948 c-22 -63 -26 -210 -6 -230 9 -9 12 -2 12 35 0 39 4 49 25
63 14 9 41 38 61 65 20 27 56 63 80 81 24 17 42 33 40 36 -13 13 -58 -20 -132
-96 l-84 -85 0 35 c0 19 7 58 16 87 20 70 11 77 -12 9z"/>
<path d="M3615 7959 l-40 -41 55 32 c72 41 80 50 49 50 -16 0 -39 -15 -64 -41z"/>
<path d="M3765 7989 c4 -6 -4 -22 -16 -36 -13 -15 -19 -23 -12 -20 19 12 -83
-135 -129 -184 -36 -39 -88 -119 -88 -136 0 -3 20 21 44 54 42 56 89 95 206
169 l55 36 -52 -54 c-56 -56 -68 -84 -33 -75 11 3 22 1 25 -4 7 -10 95 31 95
44 0 4 -4 6 -8 3 -11 -7 -8 31 3 41 4 5 5 2 1 -4 -4 -7 -5 -13 -3 -13 3 0 17
25 33 56 15 30 36 60 46 65 17 9 5 -33 -47 -164 -6 -15 -4 -16 20 -7 65 25
211 1 284 -47 24 -15 25 -15 12 0 -19 23 -88 53 -155 67 -75 15 -71 24 7 15
34 -5 69 -8 77 -7 73 5 294 -47 319 -74 3 -4 -3 -4 -14 0 -33 12 -188 47 -191
43 -4 -4 295 -89 376 -107 77 -18 97 -31 35 -25 -90 8 -200 14 -180 8 18 -4
284 -90 311 -100 6 -2 23 15 39 39 16 24 47 60 69 80 35 33 37 37 16 31 -14
-4 -74 -8 -134 -10 -88 -4 -121 -1 -176 16 -37 12 -73 28 -80 36 -7 8 -9 15
-5 15 4 0 2 7 -6 16 -7 9 11 2 39 -15 29 -17 55 -31 58 -31 6 0 -42 39 -71 58
-72 45 -109 72 -99 72 6 0 29 -12 50 -28 21 -15 66 -44 99 -65 l60 -38 -50 45
c-57 52 -53 62 7 15 21 -17 40 -30 42 -28 2 2 -26 26 -63 53 -36 27 -57 40
-47 28 24 -28 16 -28 -37 0 -23 12 -54 22 -70 23 l-27 2 22 -25 23 -26 -33 23
c-30 21 -39 22 -100 15 -56 -6 -115 -9 -131 -5 -22 5 133 111 205 139 26 11
42 22 36 26 -6 3 -95 6 -199 5 -188 -1 -188 -1 -248 -31 -66 -33 -97 -57 -90
-68 3 -4 -5 -18 -18 -31 -12 -13 -36 -42 -52 -63 -17 -23 -31 -34 -33 -27 -2
7 10 30 27 51 17 21 31 43 31 47 0 14 61 68 110 97 25 14 38 26 29 26 -9 0
-39 -15 -65 -33 -73 -50 -81 -53 -54 -21 14 16 31 35 39 42 12 10 0 12 -63 12
-52 0 -75 -3 -71 -11z"/>
<path d="M4448 7993 c7 -3 16 -2 19 1 4 3 -2 6 -13 5 -11 0 -14 -3 -6 -6z"/>
<path d="M6131 7985 c1 -19 18 -51 18 -35 0 8 -4 22 -9 30 -5 8 -9 11 -9 5z"/>
<path d="M3276 7903 c-6 -14 -5 -15 5 -6 7 7 10 15 7 18 -3 3 -9 -2 -12 -12z"/>
<path d="M6152 7900 c0 -14 2 -19 5 -12 2 6 2 18 0 25 -3 6 -5 1 -5 -13z"/>
<path d="M4573 7893 c9 -2 23 -2 30 0 6 3 -1 5 -18 5 -16 0 -22 -2 -12 -5z"/>
<path d="M4690 7886 c19 -6 45 -17 58 -24 35 -20 26 -6 -12 17 -18 12 -44 21
-57 20 -20 -1 -18 -3 11 -13z"/>
<path d="M4630 7866 c0 -2 7 -7 16 -10 8 -3 12 -2 9 4 -6 10 -25 14 -25 6z"/>
<path d="M6164 7715 c0 -82 2 -115 3 -72 2 43 2 110 0 150 -1 40 -3 5 -3 -78z"/>
<path d="M4612 7794 c10 -10 20 -15 24 -12 3 4 -5 12 -18 18 -22 12 -22 12 -6
-6z"/>
<path d="M4660 7736 c0 -2 8 -10 18 -17 15 -13 16 -12 3 4 -13 16 -21 21 -21
13z"/>
<path d="M5240 7714 c-58 -14 -145 -27 -193 -29 -98 -5 -115 -13 -185 -89 -49
-53 -52 -71 -14 -81 55 -13 250 -110 380 -187 17 -11 32 -15 32 -10 0 5 -39
50 -86 101 -47 50 -83 91 -79 91 21 0 263 -189 366 -287 68 -65 115 -106 103
-93 -94 113 -160 182 -222 232 -40 32 -70 58 -65 58 27 1 -196 119 -274 144
-29 10 -55 21 -58 26 -9 15 89 43 265 75 41 8 86 17 100 21 14 3 93 9 175 12
148 5 149 5 100 19 -27 7 -93 15 -145 18 -79 4 -113 0 -200 -21z"/>
<path d="M2120 7725 c0 -6 22 -47 49 -91 52 -84 160 -208 214 -246 18 -12 -8
21 -58 73 -82 87 -125 142 -183 239 -12 19 -22 30 -22 25z"/>
<path d="M899 7599 c31 -44 141 -160 141 -147 0 3 -19 25 -43 49 -23 24 -62
67 -86 94 l-43 50 31 -46z"/>
<path d="M6081 7608 c-1 -10 -14 -40 -31 -66 -16 -27 -30 -61 -30 -76 0 -36
-12 -33 -43 11 -15 21 -27 32 -27 26 0 -7 4 -14 9 -17 5 -4 8 -18 6 -34 -2
-16 10 -56 30 -97 18 -38 34 -76 37 -84 2 -8 12 17 21 55 19 76 41 267 34 287
-3 7 -6 5 -6 -5z"/>
<path d="M4474 7602 c3 -6 40 -29 80 -51 41 -22 105 -64 143 -91 66 -50 42
-22 -42 48 -67 54 -200 124 -181 94z"/>
<path d="M4965 7591 c6 -4 48 -21 95 -36 173 -55 388 -158 588 -282 109 -67
139 -78 46 -15 -169 112 -275 171 -414 230 -129 55 -336 123 -315 103z"/>
<path d="M3692 7520 c-15 -25 -5 -25 33 0 l30 20 -25 0 c-14 0 -31 -9 -38 -20z"/>
<path d="M3636 7488 l-17 -33 20 24 c18 20 27 41 18 41 -1 0 -11 -15 -21 -32z"/>
<path d="M1880 7495 c0 -5 5 -17 10 -25 5 -8 10 -10 10 -5 0 6 -5 17 -10 25
-5 8 -10 11 -10 5z"/>
<path d="M4340 7494 c0 -16 67 -74 86 -74 26 0 11 21 -31 44 -22 11 -43 26
-47 31 -5 6 -8 6 -8 -1z"/>
<path d="M3141 7433 c-1 -53 -7 -63 -28 -42 -10 10 -103 22 -103 13 0 -2 17
-12 38 -23 20 -10 50 -31 67 -45 33 -29 42 -28 25 3 -11 21 -6 41 9 41 4 0 26
-39 48 -88 23 -48 52 -96 64 -107 24 -20 24 -20 9 0 -8 11 -19 23 -24 26 -14
11 -13 94 2 92 15 -4 16 -8 -13 62 l-25 60 -1 -65 -1 -65 -20 45 c-12 25 -27
68 -33 95 l-13 50 -1 -52z"/>
<path d="M6141 7444 c0 -11 3 -14 6 -6 3 7 2 16 -1 19 -3 4 -6 -2 -5 -13z"/>
<path d="M1065 7430 c10 -11 20 -20 23 -20 3 0 -3 9 -13 20 -10 11 -20 20 -23
20 -3 0 3 -9 13 -20z"/>
<path d="M2677 7429 c7 -7 15 -10 18 -7 3 3 -2 9 -12 12 -14 6 -15 5 -6 -5z"/>
<path d="M3908 7413 c7 -3 16 -2 19 1 4 3 -2 6 -13 5 -11 0 -14 -3 -6 -6z"/>
<path d="M6131 7413 c-1 -6 -4 -20 -7 -30 -5 -17 -5 -17 6 0 6 10 9 23 6 30
-3 9 -5 9 -5 0z"/>
<path d="M1025 7338 c51 -82 155 -202 188 -219 19 -9 20 -8 6 3 -34 29 -93
101 -74 91 11 -6 29 -21 39 -32 11 -12 23 -21 28 -21 4 0 -27 31 -70 69 -44
38 -96 95 -116 125 -53 81 -54 69 -1 -16z"/>
<path d="M1100 7406 c0 -2 8 -10 18 -17 15 -13 16 -12 3 4 -13 16 -21 21 -21
13z"/>
<path d="M3845 7400 c-13 -5 -14 -9 -5 -9 8 0 24 4 35 9 13 5 14 9 5 9 -8 0
-24 -4 -35 -9z"/>
<path d="M3820 7371 c-91 -29 -172 -76 -241 -138 -16 -15 -26 -19 -26 -10 0
17 -33 67 -44 67 -12 0 -101 -88 -120 -119 -14 -23 -18 -24 -57 -14 -50 13
-53 9 -11 -16 37 -23 24 -35 -20 -20 -40 14 -365 7 -401 -9 -14 -6 -18 -11
-10 -11 22 -1 -239 -92 -275 -96 -16 -2 -58 -10 -92 -19 -34 -9 -131 -30 -215
-47 -407 -83 -402 -81 -261 -83 17 -1 35 -4 39 -8 4 -5 16 -8 26 -8 44 0 -1
-55 -62 -75 -25 -8 -34 -12 -20 -10 14 3 64 8 113 12 81 6 94 10 182 58 52 29
95 51 95 49 0 -1 -26 -20 -57 -41 -31 -21 -100 -78 -152 -128 -52 -49 -92 -82
-88 -72 6 16 5 16 -19 1 -34 -23 -133 -14 -244 22 -71 23 -81 29 -60 35 128
36 145 49 32 23 -88 -20 -146 -11 -148 23 -1 19 7 23 70 34 111 18 116 22 61
43 -36 14 -65 17 -124 13 -91 -6 -103 0 -215 89 -44 35 -82 62 -84 59 -2 -2
-25 10 -52 26 -76 47 -70 33 11 -22 41 -28 93 -66 116 -85 23 -19 61 -42 85
-53 l43 -18 -142 -7 c-179 -9 -254 -28 -531 -136 -129 -50 -189 -86 -269 -164
-42 -40 -60 -71 -25 -45 15 11 15 11 4 -1 -7 -8 -18 -15 -24 -15 -19 0 -75
-92 -100 -162 -18 -54 -23 -89 -23 -168 0 -88 3 -107 27 -158 34 -72 111 -154
231 -245 95 -72 170 -114 222 -126 17 -4 -2 9 -41 28 -85 42 -149 101 -177
164 -42 96 -19 269 56 417 109 217 266 349 538 453 145 56 199 72 234 72 38
-1 103 -30 157 -72 24 -18 45 -34 47 -35 2 -1 -2 -10 -10 -19 -11 -14 -10 -15
7 -12 13 2 20 -3 22 -18 4 -26 -9 -36 -75 -59 -29 -11 -48 -22 -42 -26 6 -3
-1 -9 -16 -13 -14 -4 -31 -4 -37 0 -7 4 -8 3 -4 -4 4 -7 1 -12 -6 -12 -30 0
-225 -94 -253 -122 l-30 -30 40 27 c63 43 162 84 249 104 94 23 291 54 306 49
6 -2 -13 -31 -41 -66 -28 -35 -52 -70 -53 -78 -1 -8 -54 -67 -117 -131 l-114
-116 147 138 c140 132 208 187 208 168 0 -18 -126 -146 -181 -183 -32 -22 -61
-45 -64 -50 -13 -21 111 63 153 103 23 23 42 36 42 31 0 -6 -18 -25 -40 -43
-46 -37 -67 -66 -80 -110 -12 -41 -5 -39 16 5 11 23 22 33 31 30 8 -3 11 -1 8
4 -3 6 -2 10 4 10 5 0 13 -5 16 -11 5 -7 15 -3 30 11 21 20 23 20 21 4 -2 -10
-8 -20 -14 -22 -7 -2 -12 -9 -12 -15 0 -11 -94 -126 -125 -152 -6 -5 -28 -32
-50 -59 -67 -84 -147 -166 -156 -160 -5 3 -26 -9 -46 -26 -29 -26 -32 -31 -13
-25 17 5 21 4 16 -6 -4 -8 4 0 18 16 14 17 26 27 26 24 0 -23 -53 -154 -67
-165 -17 -13 -17 -14 -1 -8 15 5 14 -3 -8 -68 -14 -40 -30 -86 -35 -103 -7
-26 -7 -28 5 -12 14 19 36 23 36 7 0 -14 -45 -85 -85 -135 -18 -22 -45 -62
-61 -89 -15 -27 -55 -79 -88 -115 -51 -54 -54 -60 -21 -34 66 52 414 424 509
544 21 27 41 48 43 46 2 -2 -4 -53 -13 -113 -30 -204 -88 -318 -243 -478 -150
-153 -233 -217 -377 -288 -102 -50 -135 -61 -190 -66 -46 -3 -61 -8 -51 -14
56 -31 269 16 649 143 132 44 244 79 249 77 14 -5 -62 -148 -120 -226 -65 -88
-191 -207 -286 -270 -38 -25 -113 -64 -165 -85 -100 -40 -124 -53 -75 -41 82
20 478 145 535 168 43 18 66 23 69 15 2 -6 12 6 22 28 10 21 38 61 63 88 l46
50 -24 -60 c-13 -33 -27 -78 -31 -100 -10 -54 -47 -124 -83 -159 -17 -15 -28
-34 -26 -40 2 -6 -14 -29 -36 -51 -48 -47 -54 -36 -7 14 17 19 24 29 14 22
-10 -8 -48 -50 -84 -95 -37 -45 -58 -74 -47 -65 10 8 60 49 109 90 77 64 249
189 260 189 8 0 43 -110 50 -156 5 -39 2 -64 -15 -110 -11 -32 -28 -80 -38
-107 -9 -26 -29 -62 -44 -80 -28 -31 -28 -31 7 42 20 40 34 75 32 78 -3 2 -17
-12 -32 -31 -15 -20 -58 -57 -96 -82 -56 -37 -82 -47 -136 -55 -144 -20 -369
39 -535 142 -28 16 -52 28 -55 26 -9 -9 82 -77 141 -105 33 -16 77 -36 96 -46
l35 -17 -33 6 c-105 16 -390 207 -397 265 0 3 -7 16 -14 30 l-14 25 23 -20
c13 -11 -7 18 -43 65 -79 101 -133 204 -148 286 -7 34 -9 116 -7 194 4 127 4
131 -8 75 l-12 -60 5 65 c17 207 91 375 258 585 30 39 79 89 108 113 28 23 64
53 79 66 14 13 36 27 47 31 12 3 19 10 16 15 -3 5 12 21 35 36 38 25 44 34 41
60 -2 13 51 70 119 127 61 52 29 35 -47 -25 -35 -27 -67 -47 -72 -44 -5 3 -15
-2 -22 -12 -13 -16 -13 -16 6 -2 19 14 19 14 6 -2 -7 -10 -18 -15 -23 -12 -20
12 -342 -340 -333 -363 2 -7 -7 -20 -20 -29 -34 -22 -214 -299 -202 -311 2 -2
23 28 46 67 23 38 44 70 46 70 2 0 -18 -46 -45 -103 -82 -171 -122 -316 -140
-507 -6 -58 -15 -130 -20 -160 -22 -118 13 -343 73 -468 60 -124 171 -205 330
-239 109 -23 315 -13 426 21 46 14 86 28 88 30 2 2 -18 3 -45 2 -28 0 -48 -4
-45 -8 5 -10 -43 -10 -87 -2 -22 5 -28 9 -18 15 10 6 8 9 -7 9 -11 0 -25 4
-32 8 -6 4 59 7 145 7 87 0 168 3 182 7 14 5 9 0 -10 -10 -20 -9 -53 -29 -76
-44 -22 -15 -75 -38 -119 -52 -157 -47 -319 -43 -485 10 -47 15 -89 27 -94 25
-5 -1 -20 8 -35 21 l-26 23 20 -24 c28 -33 125 -98 198 -131 45 -21 92 -32
170 -41 102 -11 261 -8 317 7 20 5 16 -1 -20 -31 -88 -74 -277 -271 -331 -345
-72 -97 -151 -230 -196 -327 -34 -74 -55 -133 -48 -133 2 0 17 22 33 48 46 75
185 243 252 305 120 111 250 195 533 342 l149 77 83 127 c46 69 104 167 130
216 56 108 60 112 39 50 -28 -81 -118 -249 -200 -373 -74 -111 -165 -293 -179
-358 -3 -16 5 -4 18 27 55 130 53 128 282 220 174 69 171 69 178 21 13 -76
102 -161 170 -162 11 0 31 -9 47 -20 44 -31 268 -45 295 -18 3 3 -4 42 -15 88
-12 45 -18 85 -15 88 4 4 9 3 12 -3 2 -5 12 -28 23 -50 15 -30 19 -33 15 -13
-3 14 -8 34 -11 45 -6 15 -5 16 7 5 8 -7 21 -36 31 -65 16 -51 16 -51 18 -17
l2 35 13 -30 c13 -29 14 -26 17 50 l3 80 20 -40 c16 -32 19 -59 18 -140 -1
-84 -6 -114 -31 -185 -16 -47 -35 -112 -42 -145 -20 -100 -28 -95 -23 16 6
120 -5 261 -18 219 -7 -24 -7 -24 -8 -2 -1 19 -31 34 -31 15 0 -5 -78 -5 -172
-2 -134 5 -184 3 -221 -8 -27 -8 -99 -25 -160 -38 -148 -30 -348 -91 -419
-126 -50 -25 -58 -33 -64 -65 -4 -21 -10 -32 -16 -26 -5 5 -5 20 2 36 l10 28
-47 -27 c-27 -15 -62 -38 -80 -51 l-31 -24 -4 -217 c-2 -120 -8 -227 -13 -238
-8 -18 -7 -18 6 -5 29 29 42 148 35 302 -8 155 -6 163 49 182 18 6 17 5 -3
-17 -26 -27 -25 -29 33 -47 22 -7 81 -33 130 -58 50 -25 108 -51 130 -58 22
-7 31 -13 20 -13 -11 0 -58 15 -105 35 -86 36 -202 76 -207 71 -1 -2 2 -19 7
-38 6 -19 13 -107 17 -196 7 -192 12 -203 105 -265 35 -22 55 -38 45 -34 -47
16 -70 18 -76 7 -5 -8 -22 0 -54 24 -46 35 -47 35 -55 15 -7 -19 -11 -16 -35
27 -23 42 -27 45 -27 22 0 -40 66 -132 192 -269 71 -76 114 -130 110 -137 -4
-7 -30 -37 -57 -68 -42 -48 -71 -68 -195 -131 -128 -65 -327 -184 -308 -184 4
0 33 16 65 35 32 19 101 50 153 70 52 20 100 42 105 49 12 14 71 56 79 56 9 0
56 -78 56 -93 0 -7 -14 -28 -30 -46 l-31 -33 -46 46 c-25 26 -48 44 -51 42 -3
-3 20 -45 50 -93 100 -160 113 -188 103 -220 -7 -19 -25 -35 -55 -50 -59 -29
-78 -29 -90 3 l-10 26 -43 -41 c-72 -71 -72 -71 -192 72 -38 44 -43 47 -70 38
-71 -22 -81 -22 -120 9 -22 17 -49 30 -64 29 -15 0 -20 -3 -11 -6 8 -3 38 -27
65 -52 28 -26 75 -65 105 -88 30 -22 66 -52 79 -66 l24 -26 -27 -12 c-14 -7
-26 -16 -26 -21 0 -4 -11 -8 -24 -8 -13 0 -26 -6 -29 -12 -3 -9 -19 0 -44 24
-21 21 -43 38 -47 38 -11 0 -147 -108 -163 -130 -6 -8 -15 -11 -20 -7 -4 5 5
20 20 33 15 13 25 24 21 24 -4 0 -19 -10 -32 -22 l-24 -23 -19 24 c-13 16 -32
24 -59 26 -37 3 -45 -2 -114 -66 -88 -82 -94 -67 -10 28 65 75 49 68 -46 -20
-49 -45 -66 -55 -76 -46 -8 6 -14 22 -14 34 0 13 -3 31 -7 41 -10 26 -42 -100
-43 -167 0 -35 -17 -113 -46 -215 -25 -87 -61 -215 -80 -284 -19 -69 -39 -129
-45 -135 -14 -14 -4 36 82 430 21 98 23 118 10 95 -10 -16 -74 -254 -96 -353
-7 -34 -25 -114 -39 -177 -15 -63 -33 -159 -41 -215 -9 -55 -18 -110 -21 -123
l-4 -22 3548 0 3548 0 28 203 c16 111 34 220 42 243 10 29 11 50 4 75 -6 18
-10 49 -10 66 0 18 -4 33 -10 33 -20 0 -79 63 -91 97 l-12 36 -13 -24 c-7 -13
-14 -40 -15 -59 l-1 -35 -10 32 c-8 25 -6 52 11 122 26 113 26 123 -3 174 -13
23 -38 79 -56 125 -18 45 -34 81 -36 79 -2 -2 13 -56 35 -120 37 -114 38 -117
17 -117 -12 0 -32 7 -45 16 -19 14 -25 14 -32 3 -7 -12 -9 -12 -9 0 0 9 -7 11
-20 7 -11 -3 -28 -9 -38 -12 -27 -8 -50 74 -34 120 15 45 22 83 26 151 4 59 4
59 -12 36 -17 -26 -23 -31 -57 -57 -19 -14 -19 -15 4 -4 16 9 21 9 17 1 -15
-23 -66 -40 -127 -42 -81 -3 -99 -17 -99 -78 0 -30 -3 -42 -10 -35 -11 11 -35
190 -46 344 -3 52 -11 101 -17 109 -24 29 -124 87 -154 89 -31 2 -32 1 -35
-40 -3 -36 -6 -28 -21 57 -10 55 -20 111 -23 124 l-5 23 27 -21 c15 -12 34
-21 43 -21 24 0 -95 104 -160 139 -31 17 -65 31 -75 31 -11 0 1 -10 26 -21 53
-24 106 -63 119 -88 6 -10 19 -71 30 -136 l21 -119 -31 -106 c-40 -143 -37
-134 -54 -120 -8 6 -18 9 -24 6 -5 -4 -16 15 -24 41 -9 27 -24 73 -36 103 -26
71 -64 204 -86 303 -13 63 -14 81 -4 93 10 12 10 17 1 23 -8 5 -3 16 16 34
l29 27 54 -17 c30 -9 74 -30 99 -46 l45 -30 -24 27 c-14 14 -57 38 -96 53
l-71 27 6 52 c5 44 13 59 58 110 45 50 102 145 102 169 0 4 -21 -21 -46 -56
-74 -102 -168 -192 -133 -128 6 12 37 58 70 103 53 75 90 142 89 163 -1 4 -8
-5 -17 -22 -9 -16 -33 -50 -53 -75 -21 -25 -52 -72 -70 -105 -17 -33 -42 -71
-55 -85 -13 -14 -41 -48 -62 -76 -58 -77 -173 -200 -173 -185 0 8 10 29 22 49
18 29 26 55 48 147 5 23 -1 91 -10 105 -8 12 -14 10 -38 -13 -15 -15 -36 -27
-45 -27 -17 0 -77 82 -77 104 0 6 -4 17 -9 25 -7 11 -14 10 -37 -6 -49 -34
-58 -38 -49 -22 8 14 -74 -61 -166 -151 -148 -144 -200 -187 -162 -134 30 41
342 346 438 429 86 73 202 179 408 370 71 66 135 121 143 123 10 2 -3 21 -38
55 -49 50 -52 51 -58 29 -5 -23 -6 -23 -21 -5 -9 10 -19 25 -22 34 -6 18 -70
50 -192 97 -112 43 -164 62 -238 86 -43 14 -86 30 -95 35 -33 20 14 12 110
-18 51 -15 125 -33 163 -39 109 -17 265 -73 324 -116 28 -21 49 -41 46 -45 -2
-4 14 -25 35 -46 45 -44 47 -57 25 -142 -16 -63 -21 -136 -5 -78 5 17 18 55
29 85 11 30 20 63 21 72 0 22 -55 85 -81 93 -11 4 -18 9 -15 12 10 11 -56 83
-98 108 -23 13 -100 39 -171 56 -72 17 -184 46 -250 64 -66 19 -138 37 -159
41 l-39 7 6 -74 c4 -41 13 -96 21 -124 9 -27 13 -51 11 -53 -8 -8 -43 126 -50
190 -4 41 -12 69 -21 72 -20 8 -225 29 -230 24 -2 -3 44 -12 102 -22 118 -19
134 -24 134 -38 0 -6 -7 -7 -16 -4 -35 13 -154 25 -250 25 -112 0 -158 10
-162 34 -3 14 6 17 50 18 l53 1 -44 9 c-24 5 -47 11 -50 15 -10 9 -7 174 3
174 5 0 6 24 3 53 -4 28 -3 47 1 41 4 -7 7 17 8 52 0 35 4 67 7 70 11 12 68
-38 106 -94 21 -31 53 -70 71 -87 l33 -30 -36 50 c-54 77 -89 145 -83 161 3 8
2 13 -2 10 -4 -2 -8 40 -10 94 l-3 98 44 31 c24 16 70 41 102 55 31 14 86 46
120 71 79 56 78 57 124 -120 12 -43 18 -20 36 130 9 71 17 131 20 133 2 2 16
-20 31 -50 39 -77 80 -134 150 -208 53 -57 62 -72 67 -115 4 -28 2 -77 -3
-110 -5 -33 -10 -61 -10 -63 0 -2 -5 0 -12 4 -8 5 -9 2 -5 -9 8 -21 -2 -49
-14 -41 -5 3 -9 -6 -9 -19 0 -29 -61 -93 -135 -143 -59 -40 -53 -46 8 -7 55
35 152 127 179 172 18 29 23 56 28 145 4 82 9 111 19 114 11 4 13 -5 8 -44 -4
-27 -9 -60 -12 -74 -3 -14 6 -3 19 24 14 27 28 71 31 98 4 26 11 48 16 48 6 0
29 -10 52 -21 43 -22 67 -27 172 -34 56 -3 57 -3 15 5 -25 4 -85 27 -133 50
l-87 42 0 80 c0 61 -8 105 -34 191 -53 177 -53 170 -1 120 64 -61 130 -79 239
-63 91 13 156 30 156 40 0 14 -45 37 -105 54 -125 36 -212 107 -288 234 -33
53 -35 64 -42 172 -7 119 -26 244 -44 293 -6 16 -11 38 -11 49 0 20 4 21 74
15 55 -5 84 -3 110 8 39 17 50 30 14 16 -13 -4 -27 -7 -33 -5 -5 1 -23 6 -40
10 l-30 8 35 5 c32 6 35 9 40 48 5 39 6 41 26 30 36 -20 104 -109 119 -157
l15 -45 -4 38 c-5 42 -42 121 -65 140 -12 10 -13 9 -6 -3 5 -10 5 -12 -3 -5
-6 6 -12 16 -14 24 -2 8 -14 26 -28 39 -14 13 -18 20 -10 16 11 -6 11 -2 -2
12 -18 20 -17 21 60 33 86 15 228 71 224 89 -1 9 14 11 55 7 41 -4 54 -3 43 4
-8 6 -20 11 -27 11 -6 0 -24 5 -40 11 -22 8 -25 12 -13 20 11 7 3 9 -27 7 -24
-2 -43 -1 -43 3 0 3 -22 16 -50 29 -54 25 -117 66 -86 56 10 -4 61 -11 114
-16 94 -10 248 1 296 20 13 6 1 6 -29 2 -62 -9 -278 -9 -325 0 -19 3 -55 9
-80 13 -28 5 -74 27 -119 57 -41 26 -76 46 -78 44 -5 -5 106 -84 170 -120 48
-29 60 -40 30 -29 -10 3 -15 3 -11 -1 3 -4 12 -9 20 -10 29 -5 89 -36 85 -43
-3 -5 7 -9 22 -10 15 -1 40 -7 56 -14 28 -12 28 -13 8 -16 -12 -3 -34 4 -50
13 -15 10 -23 12 -16 5 6 -8 9 -20 6 -27 -3 -8 1 -14 8 -14 9 -1 8 -4 -4 -11
-26 -15 -194 -15 -257 1 -30 8 -77 27 -103 42 -53 31 -77 37 -58 14 7 -8 23
-17 36 -20 14 -4 25 -11 25 -16 0 -16 -32 1 -113 62 -43 32 -83 58 -89 58 -5
0 0 -9 13 -19 24 -20 21 -41 -4 -25 -7 5 -5 2 5 -8 10 -9 26 -14 35 -12 12 3
46 -22 103 -74 86 -80 110 -122 69 -122 -11 0 -18 -4 -15 -9 3 -4 -5 -17 -17
-29 -29 -27 -64 -23 -111 14 -35 28 -55 53 -128 162 -63 95 -53 59 15 -52 18
-28 33 -58 35 -66 2 -8 9 -22 16 -30 7 -8 17 -22 21 -30 8 -13 7 -13 -8 -1 -9
7 -17 10 -17 5 -1 -5 -14 7 -30 26 -17 19 -30 30 -30 24 0 -5 18 -28 40 -49
22 -21 40 -42 40 -47 0 -4 19 -26 43 -49 30 -29 19 -23 -35 20 -73 58 -165
158 -170 184 -1 7 -2 90 -3 184 l0 173 32 -35 c18 -19 35 -35 38 -35 4 0 -16
26 -44 57 -46 51 -51 62 -51 104 0 26 -4 59 -10 73 -7 20 -6 26 5 26 29 0 67
-21 92 -50 24 -29 179 -111 231 -123 19 -5 21 -3 11 9 -6 8 -18 14 -25 14 -8
0 -14 4 -14 8 0 9 -39 49 -80 81 l-25 20 35 -9 c19 -6 51 -10 71 -10 20 0 57
-11 83 -25 52 -28 61 -20 15 14 -17 13 -28 25 -25 28 3 3 45 -26 93 -64 88
-71 127 -94 173 -108 14 -4 1 10 -32 32 -31 21 -88 65 -126 98 l-70 60 61 12
c60 12 202 62 195 68 -2 2 -37 -7 -78 -21 -114 -38 -216 -50 -298 -36 -63 10
-177 50 -169 59 2 2 33 -3 68 -12 35 -8 75 -14 89 -14 20 1 21 2 5 6 -214 46
-283 69 -415 139 -47 25 -76 38 -65 29 11 -8 27 -22 37 -29 9 -8 20 -11 24 -8
4 4 4 2 1 -4 -7 -12 93 -65 179 -94 28 -10 68 -27 90 -38 36 -20 37 -21 13
-22 -45 0 -156 51 -288 134 -41 25 -77 42 -80 37 -15 -21 -51 -32 -73 -20 -20
10 -18 7 6 -20 32 -33 26 -42 -8 -14 -12 9 -5 1 15 -18 50 -48 80 -70 50 -36
-14 15 -20 27 -15 27 22 0 218 -220 249 -280 19 -36 21 -110 3 -92 -19 19 -33
14 -15 -6 10 -10 17 -23 17 -28 0 -4 -8 3 -17 16 -10 14 -18 28 -18 32 0 4 -6
13 -13 20 -11 11 -12 5 -7 -32 4 -32 3 -39 -4 -25 -5 11 -10 17 -12 13 -6 -23
-7 -30 -8 -48 0 -11 -6 -20 -12 -20 -5 0 -7 5 -4 10 3 6 2 10 -4 10 -5 0 -15
17 -21 38 -16 47 -33 67 -19 21 5 -19 14 -56 19 -83 6 -26 26 -85 47 -130 l36
-81 -11 -85 c-7 -47 -14 -98 -17 -115 -4 -28 -4 -28 4 -5 6 17 7 0 4 -50 -7
-88 5 -87 23 3 10 52 12 56 13 25 1 -21 -4 -59 -10 -85 -33 -143 -53 -210 -70
-231 l-19 -25 -1 34 c-1 25 -8 10 -25 -56 -12 -49 -30 -110 -39 -135 l-15 -45
4 47 c2 26 0 45 -5 42 -5 -3 -9 1 -9 10 0 8 6 17 13 20 9 5 9 7 -1 12 -6 3
-10 10 -6 15 3 5 0 9 -5 9 -6 0 -11 11 -11 25 0 15 -5 24 -12 23 -7 -2 -12 3
-10 10 1 6 -3 12 -10 12 -8 0 -9 32 -4 123 5 67 8 131 8 142 -1 38 -13 86 -20
81 -14 -9 -12 45 7 167 15 96 18 148 13 244 -4 66 -4 119 1 116 13 -8 7 71 -8
97 -8 14 -14 22 -15 18 0 -5 -17 9 -39 31 -21 21 -99 79 -174 129 -114 75
-134 86 -123 63 8 -15 53 -65 100 -111 74 -72 89 -92 112 -154 15 -39 38 -87
51 -106 12 -20 27 -60 33 -89 19 -101 9 -390 -17 -476 l-6 -20 -8 20 c-6 16
-8 14 -8 -13 -1 -18 -4 -31 -8 -29 -5 3 -9 -43 -10 -101 -2 -59 -6 -141 -11
-182 l-8 -75 -13 95 c-19 136 -29 93 -32 -146 -1 -109 -8 -228 -15 -263 -7
-36 -11 -68 -9 -72 8 -11 -43 -196 -75 -276 -70 -174 -112 -238 -188 -285 -57
-35 -19 -33 48 3 33 17 63 29 66 26 7 -7 -18 -47 -31 -47 -5 -1 -23 -12 -40
-26 -21 -18 -24 -24 -10 -19 11 4 30 10 42 12 23 5 23 5 9 -34 -32 -91 -126
-248 -206 -343 -88 -105 -426 -398 -574 -498 -80 -54 -349 -181 -396 -188 -42
-5 -57 0 -200 73 -155 78 -302 173 -414 268 -33 27 -105 86 -160 131 -157 125
-279 263 -346 389 -18 33 -41 75 -52 93 -17 28 -17 36 3 34 15 -2 0 41 -23 66
-22 24 -128 196 -128 209 0 3 -9 18 -20 33 -11 16 -16 31 -12 34 5 3 23 -17
41 -43 17 -27 37 -51 44 -54 7 -3 43 -50 81 -106 64 -96 97 -135 83 -98 -3 10
-2 17 3 17 5 0 7 9 5 21 -4 20 -4 20 23 3 24 -15 25 -16 13 -1 -10 13 -11 20
-2 30 6 8 9 23 7 34 -3 14 1 20 12 19 11 -1 17 6 17 18 0 11 6 21 13 24 6 2
10 7 7 11 -2 5 29 11 69 14 43 3 92 14 117 26 24 11 35 19 24 16 -116 -24
-159 -16 -230 46 -19 17 -33 25 -30 18 3 -8 28 -31 57 -51 29 -22 43 -38 34
-38 -27 0 -249 174 -317 248 -75 81 -66 58 12 -30 31 -35 57 -67 59 -73 2 -5
10 -16 19 -23 14 -11 13 -12 -5 -3 -38 18 -168 167 -223 256 -66 106 -119 242
-137 355 -18 113 -18 150 6 310 11 74 25 173 30 220 18 153 30 207 56 266 21
48 22 55 7 43 -10 -8 -25 -23 -33 -34 -32 -44 -166 -152 -157 -127 1 4 -2 8
-6 9 -5 1 -17 12 -28 24 -19 22 -19 22 -40 3 -12 -10 -24 -18 -28 -17 -3 1 -9
-7 -13 -18 -4 -10 -4 -19 1 -19 4 0 13 -11 19 -25 10 -21 8 -26 -11 -37 -45
-25 -95 -46 -128 -53 -19 -4 -45 -14 -59 -23 -26 -16 41 65 127 155 81 84 197
229 221 274 12 24 17 36 10 25 -38 -56 -91 -118 -113 -132 -13 -9 -58 -59 -99
-112 -134 -174 -158 -195 -297 -261 -68 -32 -155 -71 -194 -86 -124 -49 -273
-131 -175 -97 8 3 12 2 9 -2 -14 -15 -417 -132 -425 -123 -9 9 168 83 306 128
80 27 127 46 105 43 -22 -3 -61 -12 -87 -21 -74 -23 -75 -6 -1 44 135 90 361
292 349 311 -2 4 58 66 135 137 76 70 139 130 139 133 0 2 -6 -1 -14 -7 -11
-9 -17 -8 -29 4 -14 13 -13 20 11 63 14 26 33 53 42 60 13 11 13 11 -2 6 -15
-5 -18 0 -18 25 0 18 7 46 16 64 30 58 157 272 172 290 8 9 13 19 10 22 -3 3
-18 -14 -34 -37 -16 -24 -41 -53 -56 -66 -15 -12 -37 -39 -49 -58 -37 -60 -35
-36 6 71 6 17 5 17 -9 -2 -17 -23 -43 -33 -31 -12 11 17 -4 81 -17 73 -8 -5
-9 5 -4 34 5 33 3 40 -8 36 -8 -3 -17 -1 -21 5 -4 8 -12 8 -27 0 -18 -10 -19
-8 -13 13 24 80 112 300 137 342 38 64 158 223 192 255 14 14 26 30 26 37 0 7
17 26 38 43 24 20 31 30 21 31 -9 0 -20 -7 -23 -16 -4 -9 -13 -14 -22 -10 -8
3 -12 2 -9 -4 3 -6 1 -10 -6 -10 -7 0 -20 -6 -29 -12 -9 -7 0 3 21 22 20 20
56 49 80 65 24 16 62 45 84 65 96 85 375 199 540 220 159 20 180 22 168 13
-16 -11 69 -38 115 -36 17 1 32 -2 32 -6 0 -4 -66 -41 -146 -81 -151 -76 -270
-157 -339 -231 l-40 -43 60 50 c131 109 209 161 277 183 27 9 42 9 61 0 30
-13 29 -24 -7 -99 -42 -87 -29 -83 15 5 109 214 213 319 294 296 18 -5 35 -7
38 -5 2 2 28 6 57 9 58 4 54 2 170 119 36 36 80 77 99 91 41 29 35 30 -39 6z
m-817 -258 c-7 -2 -19 -2 -25 0 -7 3 -2 5 12 5 14 0 19 -2 13 -5z m287 -3 c11
-8 4 -10 -27 -8 -23 1 -40 5 -37 10 7 11 46 10 64 -2z m-343 -6 c-3 -3 -12 -4
-19 -1 -8 3 -5 6 6 6 11 1 17 -2 13 -5z m-787 -531 c-14 -3 -29 -9 -35 -14 -7
-7 -4 -8 8 -4 10 4 17 2 17 -5 0 -12 -60 -90 -69 -90 -13 0 -5 68 10 91 13 19
26 25 55 26 23 0 29 -1 14 -4z m-1087 -24 c-11 -12 -27 -19 -34 -17 -9 3 -3
11 16 21 40 22 43 21 18 -4z m-110 -12 c-3 -5 -1 -7 5 -3 6 3 23 1 38 -4 l28
-11 -47 -42 c-49 -46 -198 -221 -217 -258 -23 -41 -55 -67 -73 -58 -33 19 -97
-104 -99 -192 0 -39 13 -72 44 -106 l20 -22 -21 6 c-68 18 -83 134 -32 253 22
50 26 67 15 63 -8 -3 -21 3 -28 13 -13 17 -15 16 -39 -9 -31 -30 -37 -24 -35
34 2 73 56 167 125 220 32 24 61 44 65 44 3 0 10 3 14 8 15 15 115 58 166 71
55 14 83 11 71 -7z m762 -37 c-3 -5 -12 -10 -18 -10 -7 0 -6 4 3 10 19 12 23
12 15 0z m214 -77 c-49 -47 -91 -84 -94 -81 -6 6 164 168 176 168 3 0 -33 -39
-82 -87z m21 -268 c0 -3 -4 -13 -10 -23 -26 -46 -88 -214 -100 -267 -7 -33
-19 -71 -27 -85 -14 -24 -14 -24 -9 -2 3 18 1 21 -8 13 -18 -15 -55 27 -58 66
-1 17 -6 29 -10 27 -5 -3 -5 -10 -2 -16 4 -6 1 -9 -6 -6 -20 6 -21 41 -2 70
20 30 194 214 199 211 9 -7 23 -2 18 7 -3 6 -1 10 4 10 6 0 11 -2 11 -5z
m3554 -141 c3 -8 2 -12 -4 -9 -6 3 -10 10 -10 16 0 14 7 11 14 -7z m-4951 -66
c6 -22 5 -22 -8 -4 -17 22 -20 40 -6 32 5 -3 11 -16 14 -28z m1575 -50 c-8
-13 -34 -56 -58 -95 -25 -40 -48 -73 -53 -73 -11 0 47 104 85 153 33 41 48 50
26 15z m-528 -341 c0 -2 -15 -16 -32 -33 l-33 -29 29 33 c28 30 36 37 36 29z
m-664 -165 c-18 -16 -18 -16 -6 6 6 13 14 21 18 18 3 -4 -2 -14 -12 -24z m854
-55 c-1 -7 -24 -37 -52 -67 -28 -30 -46 -46 -41 -35 6 11 20 40 31 65 15 30
28 46 42 47 11 1 20 -4 20 -10z m644 -129 c-11 -101 -50 -327 -59 -336 -2 -3
-3 58 -1 134 3 111 8 150 25 194 12 30 21 56 21 57 0 2 4 3 10 3 5 0 7 -22 4
-52z m-729 -28 c-21 -22 -44 -40 -50 -40 -9 1 74 80 85 80 2 0 -14 -18 -35
-40z m300 -170 c-3 -5 -12 -10 -18 -10 -7 0 -6 4 3 10 19 12 23 12 15 0z m30
-10 c-3 -5 -12 -10 -18 -10 -7 0 -6 4 3 10 19 12 23 12 15 0z m60 -17 c-4 -16
-13 -57 -21 -93 -13 -60 -70 -234 -60 -182 2 12 0 22 -5 22 -5 0 -9 5 -9 12 0
25 84 268 93 268 5 0 6 -12 2 -27z m251 -111 c-7 -71 -50 -157 -107 -214 -62
-62 -82 -62 -34 0 40 52 80 132 102 205 7 26 18 47 23 47 5 0 7 15 4 33 -4 30
-4 31 6 7 6 -14 9 -49 6 -78z m31 -79 c-2 -16 -4 -5 -4 22 0 28 2 40 4 28 2
-13 2 -35 0 -50z m3536 56 c33 -15 44 -36 58 -123 11 -62 11 -88 0 -139 -26
-129 -104 -272 -237 -437 -99 -124 -221 -223 -364 -296 -56 -29 -120 -45 -120
-29 0 25 49 116 78 145 87 85 163 272 178 438 5 52 10 69 16 58 5 -9 13 -16
17 -16 5 0 30 55 56 123 42 106 55 129 99 173 29 28 80 65 115 82 72 36 71 36
104 21z m-3669 -89 c-15 -27 -31 -50 -36 -50 -5 0 -7 -4 -3 -9 3 -5 1 -12 -4
-15 -16 -11 -5 24 24 74 38 65 54 65 19 0z m106 -313 c6 -37 16 -70 21 -73 5
-3 7 -9 4 -14 -3 -5 0 -12 6 -16 8 -4 9 -3 5 4 -4 7 -3 12 2 12 11 0 33 -80
26 -92 -3 -5 0 -25 7 -46 7 -20 12 -40 11 -44 -1 -4 3 -20 9 -35 9 -25 9 -26
-5 -13 -19 19 -77 169 -110 285 -36 126 -47 220 -29 245 8 11 11 20 8 20 -3 0
0 10 7 23 11 19 14 9 19 -83 3 -58 12 -135 19 -173z m-430 259 c0 -2 -8 -10
-17 -17 -16 -13 -17 -12 -4 4 13 16 21 21 21 13z m-40 -39 c0 -2 -15 -16 -32
-33 l-33 -29 29 33 c28 30 36 37 36 29z m3674 -161 c-3 -15 -8 -25 -11 -23 -2
3 -1 17 3 31 3 15 8 25 11 23 2 -3 1 -17 -3 -31z m465 -6 c11 -24 11 -24 -3
-6 -9 11 -16 24 -16 30 0 12 5 7 19 -24z m-553 -30 c-6 -39 -88 -193 -101
-190 -4 1 -12 -4 -17 -12 -7 -9 -8 -7 -3 7 3 11 13 49 21 85 18 75 39 108 30
45 -7 -47 2 -32 35 58 23 63 45 68 35 7z m614 -75 c28 -60 49 -115 45 -115 -5
0 -74 136 -86 170 -9 24 -9 24 7 5 8 -11 24 -38 34 -60z m-5448 -39 c4 23 15
48 25 55 15 13 16 11 9 -16 -4 -16 -9 -66 -11 -110 -4 -67 -3 -74 6 -46 6 19
17 44 26 55 15 21 15 20 9 -4 -21 -85 -18 -169 6 -154 6 4 8 3 4 -4 -9 -14 14
-63 27 -55 6 3 7 1 3 -5 -9 -16 53 -82 138 -146 39 -30 89 -73 111 -96 l40
-43 -56 44 c-31 24 -89 66 -129 94 -86 59 -171 149 -204 214 -32 63 -50 158
-44 235 8 96 22 104 28 16 5 -70 6 -72 12 -34z m1545 78 c-7 -7 26 -61 48 -79
7 -5 15 -28 19 -50 l7 -40 -26 45 c-15 25 -27 49 -28 55 -1 5 -12 19 -25 30
-17 16 -20 23 -10 33 7 7 14 12 17 12 2 0 1 -3 -2 -6z m3289 -115 c-15 -82
-35 -153 -42 -147 -2 2 3 26 11 53 9 27 13 57 9 67 -5 17 25 122 33 114 2 -2
-3 -41 -11 -87z m857 57 c30 -19 83 -44 118 -56 35 -11 75 -26 88 -33 21 -11
18 -12 -40 -24 -35 -6 -80 -12 -99 -12 -37 -1 -99 25 -138 56 -22 18 -22 20
-8 48 9 17 16 36 16 43 0 17 3 16 63 -22z m-4177 -53 c8 -17 19 -53 24 -80 11
-55 45 -178 54 -192 3 -5 3 -17 0 -26 -6 -13 -9 -14 -16 -3 -6 9 -8 3 -4 -17
2 -16 8 -52 11 -79 4 -27 31 -118 60 -203 29 -84 51 -153 49 -153 -3 0 -17 25
-30 55 l-26 56 -46 -27 c-26 -16 -97 -54 -159 -85 -61 -32 -130 -70 -153 -84
-23 -15 -39 -22 -36 -16 8 12 253 178 321 216 28 16 51 29 53 30 1 1 -9 42
-23 90 -14 48 -28 120 -31 159 -4 39 -14 85 -24 101 -18 31 -17 60 2 49 5 -4
2 6 -7 20 -12 17 -21 24 -28 17 -11 -11 0 -34 14 -26 5 4 9 4 9 1 0 -45 -95
82 -125 166 -8 23 -15 54 -15 68 1 24 1 25 16 5 8 -11 21 -40 28 -65 20 -64
63 -153 69 -143 3 5 -7 35 -24 68 -35 69 -35 72 -6 131 19 40 22 43 25 23 2
-13 10 -38 18 -56z m165 35 c17 -62 47 -145 65 -180 8 -16 13 -32 10 -35 -3
-3 -9 2 -13 13 -4 10 -24 44 -44 74 -38 58 -64 132 -55 156 10 26 25 14 37
-28z m-91 -87 c28 -69 134 -282 167 -333 36 -58 28 -57 -28 1 -30 31 -66 85
-86 127 -20 41 -37 74 -38 74 -2 0 -1 -19 1 -42 l4 -43 -13 35 c-8 19 -17 48
-21 65 l-7 29 22 -19 22 -20 -17 27 c-30 46 -78 183 -68 193 10 9 38 -33 62
-94z m-1485 -31 c-9 -41 -17 -33 -9 9 4 17 9 30 11 27 3 -2 2 -19 -2 -36z
m1602 -67 c26 -37 54 -81 61 -97 7 -16 15 -27 17 -24 3 3 -2 22 -11 44 -26 62
-7 35 81 -118 45 -79 87 -143 93 -143 16 0 40 -37 44 -67 2 -14 10 -33 17 -42
12 -14 10 -16 -18 -16 -39 0 -111 36 -205 101 -99 69 -131 97 -123 105 4 4 20
-4 35 -18 15 -14 38 -31 52 -38 22 -11 20 -7 -11 26 -62 68 -66 81 -8 28 64
-60 136 -101 151 -86 7 7 2 14 -13 23 -13 7 -25 12 -26 11 -23 -15 -65 52
-131 206 -50 116 -69 172 -59 172 3 0 27 -30 54 -67z m-1626 -4 c-5 -13 -10
-19 -10 -12 -1 15 10 45 15 40 3 -2 0 -15 -5 -28z m83 5 c3 -8 2 -12 -4 -9 -6
3 -10 10 -10 16 0 14 7 11 14 -7z m5220 -68 c48 -68 60 -95 26 -58 -12 12 -25
22 -29 22 -5 0 -15 10 -23 23 -15 22 -32 77 -24 77 2 0 25 -29 50 -64z m-3542
-20 c3 2 8 -2 12 -11 4 -12 2 -14 -13 -6 -10 6 -21 18 -25 28 -6 17 -5 17 7 1
8 -10 16 -15 19 -12z m2851 -81 c-7 -36 -42 -80 -65 -81 -15 -1 -15 2 1 40 10
22 21 53 25 68 3 15 11 40 18 55 l11 28 8 -40 c4 -22 5 -53 2 -70z m-2828 35
c-3 -5 -2 -10 3 -10 6 0 13 -8 16 -17 6 -15 5 -15 -13 1 -18 16 -20 36 -5 36
3 0 2 -4 -1 -10z m-255 -60 c6 -11 8 -20 6 -20 -3 0 -10 9 -16 20 -6 11 -8 20
-6 20 3 0 10 -9 16 -20z m310 -31 c15 -28 5 -23 -15 7 -9 15 -12 23 -6 20 6
-4 16 -16 21 -27z m3775 -128 c-7 -6 -115 48 -115 58 0 6 27 -4 59 -22 33 -17
58 -34 56 -36z m-3896 -34 c8 -11 0 -19 -39 -37 -28 -13 -52 -21 -55 -18 -6 6
61 68 74 68 5 0 14 -6 20 -13z m2781 9 c0 -2 -8 -10 -17 -17 -16 -13 -17 -12
-4 4 13 16 21 21 21 13z m-4334 -114 c-5 -4 -66 26 -66 33 0 3 16 -3 35 -12
19 -9 33 -18 31 -21z m1655 -37 c6 -16 21 -55 34 -85 13 -30 26 -66 29 -80 l6
-25 -12 25 c-19 40 -69 151 -89 200 l-19 45 19 -25 c11 -14 25 -38 32 -55z
m-880 41 c-6 -7 -42 -28 -79 -47 -56 -28 -80 -34 -142 -35 l-75 -2 60 8 c77
10 106 20 180 58 70 36 71 36 56 18z m-643 -60 c31 -13 66 -26 77 -29 17 -4
16 -5 -5 -6 -14 0 -52 12 -85 28 -73 36 -66 40 13 7z m1538 -93 c17 -42 64
-191 64 -206 0 -6 -16 -7 -37 -3 -21 3 -72 11 -112 17 -41 6 -92 19 -112 30
-44 22 -89 76 -89 107 0 20 20 29 120 57 14 4 45 13 70 20 69 21 78 19 96 -22z
m2599 -108 c4 -49 15 -128 26 -175 18 -82 18 -83 13 -25 -5 63 22 185 43 192
14 5 22 -29 24 -92 l1 -50 13 60 c18 88 18 22 0 -102 -12 -79 -13 -125 -5
-219 5 -65 8 -120 6 -121 -2 -2 -9 18 -17 44 -7 26 -30 84 -50 128 -48 103
-78 221 -86 339 -6 100 2 169 17 131 4 -11 11 -60 15 -110z m-3125 91 c0 -2
-8 -10 -17 -17 -16 -13 -17 -12 -4 4 13 16 21 21 21 13z m-121 -110 c-17 -15
-109 -54 -109 -46 0 12 76 49 99 50 8 0 12 -2 10 -4z m3094 -92 c-5 -13 -2
-15 15 -9 29 9 29 -11 -3 -100 -13 -38 -24 -86 -24 -105 1 -33 2 -33 10 -10 7
21 8 19 4 -10 -3 -19 -9 -69 -12 -110 l-7 -75 -17 75 c-10 41 -21 117 -24 167
-7 92 -7 93 25 143 33 51 44 63 33 34z m25 -142 c-6 -24 -13 -41 -15 -38 -2 2
1 23 7 46 6 23 13 40 15 38 2 -2 -1 -23 -7 -46z m-2097 -79 c30 -47 66 -136
73 -183 5 -35 5 -35 -8 5 -11 33 -77 181 -93 208 -2 4 -2 7 0 7 2 0 15 -17 28
-37z m-1033 -28 c-5 -5 -167 -70 -223 -89 -11 -4 7 7 40 25 79 43 206 87 183
64z m1150 -41 c-3 -14 -5 -12 -10 9 -3 19 -2 25 4 19 6 -6 8 -18 6 -28z m1854
-277 c-2 -289 2 -341 43 -535 l28 -134 -17 -176 c-22 -234 -33 -332 -41 -362
-5 -20 -3 -19 8 5 29 63 61 314 62 487 0 115 1 125 16 112 8 -8 20 -14 25 -14
5 0 34 -24 63 -54 63 -64 75 -101 93 -280 l12 -119 -107 -104 c-80 -79 -111
-102 -120 -95 -8 7 -18 7 -27 2 -19 -12 -34 -1 -21 14 8 9 7 13 -3 13 -8 0
-20 -10 -26 -23 -7 -12 -32 -37 -56 -55 -24 -18 -44 -36 -44 -41 0 -27 -219
-69 -273 -52 -18 6 -18 6 0 27 13 15 14 19 3 15 -55 -20 -57 -19 -63 8 -5 29
24 148 48 195 8 15 15 32 15 36 0 15 -40 -56 -66 -118 -27 -66 -102 -189 -115
-189 -4 0 -30 -29 -58 -65 -55 -70 -52 -70 54 -14 107 57 182 79 273 79 43 0
82 3 86 7 3 4 12 8 19 9 7 1 39 7 71 13 33 6 61 10 62 8 7 -6 -200 -184 -242
-209 -63 -36 -335 -85 -574 -103 l-75 -6 -123 121 c-106 105 -120 122 -102
127 14 4 19 11 15 20 -4 11 -1 13 12 8 10 -3 46 -12 80 -19 35 -8 74 -21 89
-31 14 -9 28 -15 30 -12 3 3 -10 14 -28 25 -38 23 -94 113 -153 244 -36 78
-59 108 -72 94 -3 -2 0 -19 6 -38 39 -123 60 -225 42 -198 -9 12 -11 10 -11
-11 0 -42 -26 -43 -88 -2 -81 53 -132 95 -127 103 3 4 -3 14 -12 21 -10 8 -14
9 -10 2 4 -7 -6 -5 -25 5 -39 19 -178 158 -178 177 0 8 -5 17 -12 21 -7 5 -8
2 -3 -7 5 -8 5 -11 1 -7 -4 3 -8 10 -8 15 0 4 -5 14 -11 21 -6 7 -11 26 -12
41 -1 15 -11 42 -23 59 -13 17 -31 56 -42 86 -10 31 -23 64 -29 73 -18 31 -13
-21 8 -95 11 -37 22 -87 26 -111 6 -42 5 -44 -12 -30 -23 20 -263 228 -282
245 -24 22 2 66 91 157 l84 85 3 -41 c3 -58 44 -227 49 -200 2 12 -6 60 -17
108 -23 93 -27 145 -12 145 16 0 18 -9 38 -125 10 -61 19 -101 21 -90 1 11 -4
65 -12 119 l-15 100 28 65 c37 85 51 153 51 248 l0 77 35 -34 c19 -19 35 -30
35 -25 0 5 21 -11 48 -36 45 -44 136 -107 232 -162 25 -14 72 -50 105 -79 33
-30 92 -75 130 -99 39 -25 99 -71 135 -103 105 -93 96 -94 222 31 60 59 106
99 102 88 -4 -11 -11 -26 -17 -32 -5 -7 -7 -13 -4 -13 19 0 39 16 57 45 18 29
25 33 56 31 29 -3 40 2 66 33 17 20 27 29 23 21 -5 -9 -4 -12 1 -7 5 5 9 12
10 15 1 21 78 158 113 202 44 55 62 91 80 157 7 24 39 76 77 125 79 100 77 97
68 74 -5 -13 -4 -17 4 -12 23 14 32 -37 43 -240 6 -115 12 -210 14 -212 1 -1
5 102 9 230 6 206 14 295 32 377 13 61 18 -11 16 -252z m1456 87 c-4 -3 -12 5
-18 18 -12 22 -12 22 6 6 10 -10 15 -20 12 -24z m-3197 -156 c20 -116 25 -253
10 -277 -6 -9 -11 18 -15 75 -3 49 -13 141 -21 204 -18 138 -18 152 -4 127 6
-10 19 -68 30 -129z m-1111 -18 c141 -83 366 -258 384 -299 5 -10 3 -11 -6 -4
-89 68 -149 111 -228 165 -212 144 -244 168 -222 168 12 0 44 -14 72 -30z
m3121 -231 c29 -10 155 -86 183 -110 26 -23 -74 15 -127 48 -60 37 -65 38
-145 36 -59 -1 -82 2 -79 10 7 23 116 33 168 16z m-186 -29 c-3 -5 -13 -10
-21 -10 -8 0 -14 5 -14 10 0 6 9 10 21 10 11 0 17 -4 14 -10z m-2039 -69 c-3
-4 -32 -11 -65 -14 -33 -4 -79 -14 -103 -23 -23 -9 -56 -18 -73 -21 -50 -9
-16 14 60 41 68 24 192 36 181 17z m2577 -119 c29 -37 62 -80 72 -97 l19 -30
-27 24 c-15 14 -27 30 -27 37 0 8 -6 11 -14 8 -9 -3 -17 3 -21 18 -4 13 -27
44 -51 70 -24 26 -44 50 -44 53 0 17 46 -24 93 -83z m-2638 -132 c-3 -5 -11
-10 -16 -10 -6 0 -7 5 -4 10 3 6 11 10 16 10 6 0 7 -4 4 -10z m-1094 -46 c13
-16 12 -16 -7 -6 -11 6 -27 19 -35 28 -13 16 -12 16 7 6 11 -6 27 -19 35 -28z
m4494 -59 c0 -24 -6 -50 -13 -57 -11 -11 -12 -1 -10 55 2 76 23 78 23 2z
m-1005 10 c0 -5 -5 -3 -10 5 -5 8 -10 20 -10 25 0 6 5 3 10 -5 5 -8 10 -19 10
-25z m830 -265 c-6 -11 -7 -20 -2 -20 5 0 12 -53 16 -117 3 -65 7 -129 9 -142
1 -18 -6 -29 -30 -43 l-32 -19 -17 38 c-10 22 -18 65 -18 103 -1 57 3 72 33
120 19 31 29 56 23 58 -8 2 -8 9 1 23 16 25 31 25 17 -1z m-944 -149 c-4 -5
-30 -28 -59 -51 l-52 -42 55 51 c55 51 66 59 56 42z m-116 -95 c0 -2 -8 -10
-17 -17 -16 -13 -17 -12 -4 4 13 16 21 21 21 13z m1649 -103 c18 -108 30 -246
24 -275 -7 -38 -30 -35 -36 5 -13 73 -19 211 -12 272 3 36 8 65 10 65 2 0 8
-30 14 -67z"/>
<path d="M5799 4732 c-62 -48 -139 -134 -139 -157 0 -6 9 -28 20 -50 29 -57
25 -100 -16 -185 -20 -41 -47 -102 -60 -135 -19 -48 -40 -76 -106 -139 -46
-43 -75 -73 -66 -66 10 7 25 10 33 6 9 -3 15 0 15 9 0 17 56 49 70 40 24 -15
124 71 179 155 17 27 18 30 3 13 -20 -23 -82 -33 -82 -14 0 5 16 33 35 62 48
71 52 80 16 40 -34 -39 -34 -34 1 78 16 51 18 70 10 97 -5 19 -7 32 -3 30 4
-3 13 -1 20 4 19 11 3 33 -20 27 -25 -7 -25 19 0 33 29 15 49 12 68 -9 9 -11
21 -17 26 -14 7 4 8 -11 4 -40 -7 -51 3 -62 21 -22 17 38 15 77 -9 136 -11 29
-19 64 -17 78 3 23 8 18 36 -38 26 -49 33 -76 33 -117 0 -64 -8 -108 -27 -146
-8 -16 -12 -28 -9 -28 2 0 18 26 34 58 61 120 81 282 41 322 -11 11 -26 20
-34 20 -7 0 -42 -22 -77 -48z"/>
<path d="M5740 4475 c-7 -9 -11 -17 -9 -20 3 -2 10 5 17 15 14 24 10 26 -8 5z"/>
<path d="M5578 4368 c-32 -44 -70 -110 -65 -114 2 -3 25 28 51 67 48 72 59
106 14 47z"/>
<path d="M5544 4008 l-19 -23 23 19 c12 11 22 21 22 23 0 8 -8 2 -26 -19z"/>
<path d="M5484 3964 c-18 -14 -18 -15 4 -4 12 6 22 13 22 15 0 8 -5 6 -26 -11z"/>
<path d="M5349 3940 c-13 -10 -19 -19 -13 -20 6 0 19 9 29 20 23 26 14 26 -16
0z"/>
<path d="M2176 4087 c3 -10 9 -15 12 -12 3 3 0 11 -7 18 -10 9 -11 8 -5 -6z"/>
<path d="M2410 3467 c0 -5 11 -25 25 -45 14 -20 25 -33 25 -29 0 5 -11 25 -25
45 -14 20 -25 33 -25 29z"/>
<path d="M3310 2510 c1 -67 194 -553 229 -574 19 -12 12 9 -43 126 -30 63 -65
148 -79 189 -14 41 -39 104 -56 141 -17 36 -31 72 -31 80 0 7 -5 20 -10 28 -5
8 -10 13 -10 10z"/>
<path d="M4700 2363 c-10 -69 -88 -387 -106 -439 -5 -14 -4 -16 5 -8 13 11 73
216 95 321 16 78 31 203 24 203 -3 0 -11 -35 -18 -77z"/>
<path d="M4404 2218 l-19 -23 23 19 c21 18 27 26 19 26 -2 0 -12 -10 -23 -22z"/>
<path d="M4419 2183 c-33 -40 -40 -56 -10 -24 17 18 31 35 31 37 0 8 -7 3 -21
-13z"/>
<path d="M4366 2071 c-20 -32 -36 -63 -36 -67 0 -5 10 7 21 26 12 19 30 50 41
68 11 17 17 32 15 32 -3 0 -22 -26 -41 -59z"/>
<path d="M4323 1968 c-15 -20 -25 -38 -20 -38 3 0 12 11 21 25 17 26 16 35 -1
13z"/>
<path d="M3706 1795 c21 -38 50 -88 65 -110 36 -53 142 -165 135 -142 -3 10
-2 16 3 12 17 -10 42 6 31 20 -5 6 -7 14 -4 18 3 3 -5 10 -18 17 -22 11 -22
10 -4 -4 22 -18 10 -22 -14 -6 -13 9 -13 12 2 23 15 12 15 14 -5 28 -48 31
-73 30 -68 -3 6 -37 -83 79 -94 123 -3 13 -20 40 -36 59 -30 34 -30 34 7 -35z
m174 -187 c0 -6 -6 -5 -15 2 -8 7 -15 14 -15 16 0 2 7 1 15 -2 8 -4 15 -11 15
-16z"/>
<path d="M4320 1835 c-7 -9 -10 -18 -7 -21 3 -3 10 4 17 15 13 25 8 27 -10 6z"/>
<path d="M4215 1749 c-16 -10 -25 -19 -19 -19 7 0 22 9 35 20 30 24 23 24 -16
-1z"/>
<path d="M4265 1713 c-29 -26 -37 -37 -18 -24 17 11 33 21 36 21 5 0 -18 -77
-38 -126 -10 -24 -10 -35 0 -54 l13 -24 16 38 c9 21 20 64 25 95 6 31 13 71
17 89 3 17 5 32 3 32 -2 -1 -26 -22 -54 -47z"/>
<path d="M3305 1696 c10 -14 19 -26 22 -26 7 0 -17 39 -28 46 -6 3 -3 -5 6
-20z"/>
<path d="M4154 1644 c-18 -14 -18 -14 6 -3 31 14 36 19 24 19 -6 0 -19 -7 -30
-16z"/>
<path d="M3961 1615 c7 -7 99 -55 105 -55 15 0 -11 20 -51 39 -43 20 -64 26
-54 16z"/>
<path d="M4080 1556 c0 -2 7 -7 16 -10 8 -3 12 -2 9 4 -6 10 -25 14 -25 6z"/>
<path d="M4945 1529 c-4 -6 -5 -12 -2 -15 2 -3 7 2 10 11 7 17 1 20 -8 4z"/>
<path d="M3997 1219 c7 -7 15 -10 18 -7 3 3 -2 9 -12 12 -14 6 -15 5 -6 -5z"/>
<path d="M4255 1174 l-30 -14 30 6 c17 3 34 10 40 15 14 13 -5 11 -40 -7z"/>
<path d="M2667 7348 c-43 -16 -76 -32 -74 -34 4 -4 168 54 176 62 12 11 -32 0
-102 -28z"/>
<path d="M6110 7344 c0 -6 -16 -37 -35 -69 -20 -32 -34 -62 -33 -67 2 -5 21
23 42 62 21 39 35 74 32 77 -3 4 -6 2 -6 -3z"/>
<path d="M3918 7310 c-21 -17 -47 -45 -59 -63 l-22 -32 33 35 c18 19 47 47 64
62 42 37 29 35 -16 -2z"/>
<path d="M2473 7323 c10 -17 -184 -103 -263 -116 -21 -4 -21 -4 6 -6 37 -1 89
16 195 66 79 37 89 46 67 59 -6 4 -8 3 -5 -3z"/>
<path d="M1605 7310 c3 -5 8 -10 11 -10 2 0 4 5 4 10 0 6 -5 10 -11 10 -5 0
-7 -4 -4 -10z"/>
<path d="M2442 7245 c-45 -23 -79 -45 -75 -49 5 -5 -3 -5 -16 -1 -15 4 -21 3
-17 -3 8 -13 -8 -19 -106 -33 -45 -7 -78 -14 -71 -16 22 -8 194 27 231 46 174
89 169 86 150 93 -7 2 -50 -15 -96 -37z"/>
<path d="M1950 7269 c0 -11 11 -18 33 -22 41 -6 48 0 11 9 -16 4 -32 12 -36
18 -5 7 -8 5 -8 -5z"/>
<path d="M4525 7245 l30 -26 -27 5 c-70 15 -240 27 -303 21 -143 -13 -133 -20
31 -21 191 -1 300 -14 365 -43 69 -32 91 -24 24 8 -33 16 -80 42 -105 56 l-45
27 30 -27z"/>
<path d="M1673 7195 c21 -20 40 -35 43 -32 3 2 -14 19 -38 37 l-43 33 38 -38z"/>
<path d="M2080 7220 c8 -5 22 -10 30 -10 13 0 13 1 0 10 -8 5 -22 10 -30 10
-13 0 -13 -1 0 -10z"/>
<path d="M2138 7203 c6 -2 18 -2 25 0 6 3 1 5 -13 5 -14 0 -19 -2 -12 -5z"/>
<path d="M3693 7143 l-61 -4 25 -27 c32 -34 64 -86 85 -137 68 -164 89 -243
41 -150 -47 91 -183 244 -246 277 l-39 19 -61 -57 c-87 -82 -112 -109 -172
-189 -79 -105 -87 -129 -21 -66 30 30 58 52 62 49 3 -4 15 2 27 13 21 20 52
25 61 11 3 -5 51 14 107 41 85 42 105 48 120 39 27 -17 23 1 -8 40 -14 18 2 6
36 -27 34 -33 83 -93 108 -132 25 -40 49 -70 54 -67 22 13 1 125 -31 174 -10
14 -15 31 -13 38 3 7 0 19 -6 26 -26 31 32 96 86 96 15 0 16 2 3 10 -47 31
187 -7 276 -45 58 -24 51 -10 -10 20 -90 44 -223 59 -423 48z"/>
<path d="M1240 7096 c0 -2 8 -10 18 -17 15 -13 16 -12 3 4 -13 16 -21 21 -21
13z"/>
<path d="M5606 7058 c23 -41 95 -123 131 -151 25 -18 24 -17 -4 14 -37 39 -42
54 -15 45 12 -4 12 -2 -3 7 -11 7 -44 36 -74 65 -46 47 -51 50 -35 20z"/>
<path d="M1240 7046 c0 -2 7 -7 16 -10 8 -3 12 -2 9 4 -6 10 -25 14 -25 6z"/>
<path d="M5030 7040 c0 -6 -6 -8 -12 -4 -7 3 1 -6 17 -20 l30 -27 -42 21 c-24
11 -43 18 -43 16 0 -6 157 -99 193 -114 49 -21 61 -13 21 14 -21 15 -67 49
-101 76 -35 27 -63 45 -63 38z"/>
<path d="M4530 6906 c6 -8 44 -37 83 -63 40 -26 108 -74 153 -105 105 -75 121
-75 22 0 -42 31 -113 85 -158 120 -45 34 -89 62 -97 62 -12 0 -13 -3 -3 -14z"/>
<path d="M6385 6788 c-34 -29 -79 -68 -100 -86 -22 -18 -31 -29 -20 -24 21 11
185 150 185 158 0 8 -5 4 -65 -48z"/>
<path d="M4666 6740 c89 -107 184 -233 184 -245 0 -5 -10 0 -22 11 -12 10 0
-10 28 -45 77 -99 92 -121 136 -198 23 -40 43 -71 45 -69 5 4 -63 129 -125
231 -72 117 -236 333 -286 376 -27 23 -15 4 40 -61z m202 -275 c-3 -3 -9 2
-12 12 -6 14 -5 15 5 6 7 -7 10 -15 7 -18z"/>
<path d="M5166 6777 c81 -66 310 -285 366 -350 32 -38 75 -93 95 -123 20 -30
38 -54 40 -54 7 0 -69 133 -103 180 -33 46 -171 184 -234 234 l-35 27 53 -26
c61 -30 221 -95 231 -94 3 0 -43 25 -104 55 -60 31 -96 53 -80 50 67 -12 125
-18 125 -14 0 3 -46 16 -102 29 -67 15 -136 40 -197 71 -87 43 -91 44 -55 15z"/>
<path d="M4206 6762 c41 -35 190 -136 177 -121 -16 20 -168 129 -179 129 -4 0
-4 -4 2 -8z"/>
<path d="M6280 6739 c-25 -17 -52 -38 -60 -46 -8 -9 13 3 48 26 34 23 62 44
62 46 0 7 -2 6 -50 -26z"/>
<path d="M3258 6722 c-51 -76 -71 -127 -79 -201 -7 -63 -18 -94 -68 -191 -33
-64 -66 -145 -75 -183 -19 -82 -20 -96 -3 -74 11 16 15 16 31 4 19 -14 19 -19
6 -100 -9 -63 -10 -100 -3 -139 l10 -53 3 70 3 70 7 -50 c14 -96 32 -201 46
-265 24 -111 25 -116 5 -65 -12 31 -20 42 -20 29 -1 -32 34 -228 58 -319 21
-81 112 -355 151 -455 12 -30 26 -68 32 -85 33 -90 162 -256 210 -270 17 -5
12 2 -19 29 -23 20 -56 55 -74 79 -18 23 -24 34 -12 24 20 -17 22 -17 31 -1 7
12 15 15 28 9 35 -15 46 -15 34 0 -7 8 -17 13 -23 12 -7 -1 -11 6 -11 16 1 12
-6 17 -26 17 -17 0 -30 7 -34 16 -5 13 -3 14 7 6 7 -7 18 -7 27 -2 10 6 26 -7
59 -53 25 -33 45 -62 44 -63 -6 -9 228 -251 343 -354 33 -30 49 -46 35 -34
-38 31 -74 54 -85 54 -5 0 -6 -26 -2 -61 5 -51 12 -68 43 -104 21 -24 51 -74
66 -111 30 -75 64 -127 64 -100 0 9 -5 16 -11 16 -6 0 -4 4 4 10 12 7 12 12
-4 29 -10 11 -15 24 -11 30 20 34 4 151 -26 187 -6 8 -9 14 -5 14 3 0 30 -37
60 -82 29 -46 89 -117 132 -159 93 -89 156 -130 80 -50 -28 28 -51 56 -52 63
-2 7 -21 57 -43 111 -23 53 -41 102 -41 107 0 6 28 -12 63 -39 60 -47 176
-116 183 -108 2 2 -22 22 -54 44 -41 29 -75 66 -121 134 -58 84 -65 100 -69
153 -5 61 12 299 29 401 26 161 141 579 189 689 26 57 27 56 113 -59 61 -82
77 -112 143 -270 21 -49 44 -97 51 -106 15 -18 12 -19 -157 -54 -120 -24 -260
-73 -260 -91 0 -3 6 -2 13 2 7 4 8 3 4 -2 -5 -5 -16 -9 -25 -9 -9 0 -24 -14
-34 -31 l-18 -31 61 29 c78 37 88 29 15 -13 -82 -46 -62 -46 31 0 79 39 201
83 321 116 75 21 76 20 117 -87 21 -52 30 -66 43 -61 13 4 14 3 3 -5 -18 -13
-9 -37 14 -37 27 0 29 -22 3 -28 -13 -4 -64 -11 -113 -17 -50 -5 -115 -17
-145 -26 -30 -9 -65 -17 -77 -18 -12 0 -19 -3 -17 -5 5 -5 -54 -34 -71 -36 -5
0 -11 -5 -13 -10 -2 -6 -13 -20 -24 -32 -11 -12 -18 -29 -15 -37 4 -9 -9 -37
-29 -66 -34 -50 -36 -64 -4 -35 20 18 60 28 60 14 0 -5 -5 -9 -12 -9 -6 0 -8
-3 -5 -7 4 -3 15 0 24 8 32 25 66 42 58 28 -6 -9 2 -10 32 -6 39 7 40 6 53
-33 7 -22 26 -54 42 -72 l29 -33 -21 40 c-27 54 -26 75 2 67 13 -3 30 -15 40
-26 l17 -21 -5 21 c-7 28 21 52 44 37 12 -7 33 -6 72 2 95 22 142 27 135 15
-4 -6 -17 -16 -29 -21 -21 -9 -21 -10 2 -5 28 5 28 -8 -3 -63 -14 -24 -24 -45
-22 -47 7 -7 41 37 67 84 29 53 56 69 48 28 -3 -14 -1 -26 3 -26 5 0 9 11 9
25 0 19 7 26 33 33 17 5 34 8 35 6 5 -4 -30 -76 -49 -102 l-18 -23 -4 28 c-3
24 -4 22 -6 -9 -1 -28 -8 -43 -33 -63 -18 -15 -26 -24 -18 -19 8 4 23 14 33
22 16 14 17 11 19 -44 l1 -59 6 61 c6 59 9 64 75 135 l69 74 -7 -38 c-17 -90
-106 -262 -185 -357 -25 -30 -40 -51 -33 -47 18 12 15 -13 -5 -36 -14 -16 -15
-19 -3 -15 34 10 162 185 217 296 30 62 53 115 50 118 -2 3 -19 -25 -37 -61
-18 -36 -35 -64 -37 -61 -3 2 1 15 8 28 7 12 14 28 15 33 2 6 7 24 13 40 46
128 83 284 90 371 9 124 -10 321 -39 408 -21 65 -153 279 -238 389 -74 94 -70
83 35 -96 36 -61 67 -125 68 -142 3 -23 -4 -16 -29 35 -18 36 -39 76 -47 90
-23 41 -101 144 -87 115 48 -100 87 -191 125 -295 47 -129 63 -182 53 -178
-14 5 -159 208 -202 283 -22 39 -78 134 -123 211 -54 93 -77 140 -66 138 9 -2
48 -10 88 -19 40 -8 87 -15 105 -14 31 1 31 2 -10 11 -24 5 -42 11 -40 12 1 1
73 -2 160 -7 150 -10 157 -11 167 -34 11 -25 55 -292 49 -299 -2 -2 -23 48
-47 112 -24 63 -46 113 -48 111 -2 -2 4 -24 13 -48 21 -58 33 -99 30 -99 -2 0
-24 36 -50 81 -26 45 -50 79 -52 76 -3 -2 12 -33 33 -68 42 -72 119 -244 151
-334 11 -34 24 -90 28 -125 6 -55 8 -61 16 -40 10 25 5 106 -11 205 -6 34 -9
41 -10 20 0 -17 -5 -25 -10 -20 -13 15 -33 96 -31 132 0 18 -6 75 -15 128 -18
113 -18 118 -4 110 6 -4 8 -14 4 -23 -3 -9 -3 -13 1 -9 4 4 18 -10 30 -31 13
-20 24 -32 24 -27 0 6 -6 19 -14 30 -24 36 -77 137 -67 131 5 -3 2 21 -6 54
-9 34 -18 59 -20 56 -2 -2 1 -23 7 -46 6 -23 10 -44 7 -46 -3 -3 -64 133 -134
299 -16 36 -54 81 -41 47 60 -150 91 -227 96 -235 4 -6 -6 3 -21 20 l-29 30
23 -35 c12 -19 35 -51 51 -71 15 -20 28 -40 28 -43 0 -25 -285 16 -611 88
-307 69 -634 234 -931 471 -69 55 -120 140 -116 191 l3 39 32 -60 c39 -74 142
-200 188 -232 48 -32 58 -29 12 4 -81 57 -192 218 -257 372 -18 41 -38 81 -46
88 -8 8 -14 20 -14 27 0 8 -7 19 -15 26 -13 11 -15 8 -15 -22 0 -42 24 -138
51 -197 35 -80 160 -266 178 -266 4 0 33 -27 66 -59 32 -33 53 -56 45 -52 -8
5 30 -37 85 -93 55 -55 102 -101 104 -101 6 0 -69 80 -109 116 -14 13 -20 24
-13 24 7 0 59 -46 117 -102 57 -57 102 -98 98 -93 -3 6 -17 25 -31 44 -14 19
-25 36 -23 39 2 2 0 7 -4 10 -4 4 -4 1 1 -7 5 -10 4 -12 -4 -7 -6 4 -9 11 -6
16 6 10 45 8 62 -3 20 -12 52 -85 46 -105 -3 -14 2 -24 16 -31 27 -15 27 -5
-4 66 -14 32 -18 49 -10 39 8 -11 24 -44 35 -73 11 -30 26 -64 34 -76 32 -48
67 -272 91 -576 19 -245 19 -324 -1 -442 -21 -121 -33 -134 -20 -21 12 111 12
439 0 474 -6 18 -9 -62 -9 -230 0 -141 -4 -270 -8 -285 -7 -25 -10 -27 -24
-15 -14 11 -14 10 1 -14 12 -19 16 -42 14 -85 l-3 -58 -25 65 c-34 89 -49 140
-42 140 3 0 14 -8 25 -18 11 -9 4 8 -17 40 -36 57 -36 57 -42 200 -5 134 -31
291 -90 548 l-12 55 -1 -53 c-1 -29 8 -90 18 -135 37 -153 82 -489 68 -503 -2
-2 -42 49 -88 114 -113 158 -121 169 -113 153 5 -10 3 -12 -5 -7 -7 5 -10 14
-7 22 3 8 1 13 -3 11 -22 -6 -266 363 -354 533 -49 95 -39 51 13 -55 46 -95
112 -205 225 -375 84 -127 180 -307 230 -435 15 -38 39 -92 53 -120 14 -27 31
-68 38 -90 10 -33 13 -36 14 -15 l2 25 8 -25 c5 -15 7 8 4 60 l-4 85 24 -65
c13 -36 38 -98 55 -139 25 -60 31 -88 31 -147 0 -41 7 -94 16 -120 12 -37 13
-49 3 -58 -9 -8 -10 -8 -4 2 5 9 -7 28 -33 55 -36 38 -62 76 -62 91 0 10 34
-28 57 -64 27 -41 29 -37 7 15 -8 21 -17 49 -18 64 -1 15 -8 25 -15 23 -7 -1
-10 2 -6 8 4 6 -10 40 -30 75 -20 36 -34 69 -31 73 3 5 -1 9 -9 9 -18 0 -18 1
-1 -61 8 -28 19 -73 24 -101 5 -27 13 -59 17 -70 6 -14 -3 -10 -28 14 -46 43
-113 160 -239 413 -54 109 -100 198 -103 198 -6 0 76 -182 131 -293 41 -81 72
-133 171 -291 l25 -38 -33 18 c-18 11 -71 57 -118 103 -47 46 -73 73 -57 60
26 -22 28 -22 18 -3 -13 25 -43 51 -50 44 -3 -3 -6 3 -8 12 -1 10 -21 44 -44
75 -23 32 -59 85 -81 118 -22 33 -57 85 -79 115 -22 30 -81 136 -131 235 -50
99 -88 171 -84 160 4 -11 11 -31 15 -45 45 -142 171 -390 245 -485 44 -56 54
-77 16 -35 -114 127 -258 407 -346 673 -54 164 -68 222 -39 162 l14 -30 -6 35
c-4 19 -8 51 -9 70 -1 19 -10 80 -19 135 -8 55 -21 156 -27 225 -11 123 -11
126 18 238 16 62 32 109 36 105 4 -3 7 18 8 48 0 64 13 43 23 -41 11 -83 53
-233 96 -340 57 -141 83 -201 86 -198 1 2 -26 91 -62 198 -79 239 -94 301 -94
393 0 87 11 111 33 76 18 -28 47 -93 76 -169 12 -30 20 -43 18 -28 -4 25 -2
26 31 22 19 -2 42 -10 51 -17 18 -15 14 -6 -39 73 -70 104 -139 272 -140 338
0 35 -17 26 -25 -14 -3 -20 -9 -34 -12 -31 -5 6 28 128 48 176 16 38 4 35 -23
-7z m752 -917 c0 -5 -5 -3 -10 5 -5 8 -10 20 -10 25 0 6 5 3 10 -5 5 -8 10
-19 10 -25z m30 -80 c0 -5 -5 -3 -10 5 -5 8 -10 20 -10 25 0 6 5 3 10 -5 5 -8
10 -19 10 -25z m250 -10 c41 -13 102 -32 135 -42 52 -16 66 -26 115 -85 75
-89 133 -175 160 -234 l21 -49 -30 35 c-17 19 -30 31 -31 27 0 -12 40 -89 56
-108 13 -14 164 -305 164 -315 0 -2 -10 -4 -23 -4 -19 0 -31 19 -80 123 -32
67 -67 133 -78 147 -12 15 -6 -4 15 -47 43 -86 33 -104 -14 -27 -18 30 -35 52
-38 50 -3 -3 0 -11 6 -18 37 -46 134 -268 116 -268 -2 0 -20 33 -40 73 -37 74
-226 365 -322 497 -30 41 -93 114 -139 162 -76 80 -96 108 -76 108 4 0 41 -11
83 -25z m327 -149 c19 -32 32 -60 31 -61 -2 -1 -25 27 -51 62 -35 47 -44 64
-31 61 10 -2 33 -30 51 -62z m-353 -51 c17 -22 34 -41 37 -43 7 -3 -7 -82 -41
-227 -26 -116 -76 -357 -85 -415 -7 -41 -8 -43 -17 -21 -7 19 -13 543 -9 749
l1 43 41 -23 c23 -13 55 -41 73 -63z m475 -159 c40 -65 93 -148 118 -185 26
-36 56 -79 67 -96 12 -16 33 -45 48 -64 29 -36 28 -51 -1 -51 -22 0 -49 31
-80 90 -14 25 -57 99 -96 165 -88 147 -135 235 -135 254 0 19 -1 21 79 -113z
m-602 -118 c-3 -8 -6 -5 -6 6 -1 11 2 17 5 13 3 -3 4 -12 1 -19z m535 -170
c20 -34 35 -64 33 -67 -11 -10 -54 43 -90 112 -37 69 -37 71 -10 44 16 -15 46
-56 67 -89z m85 6 c-3 -4 0 -13 8 -21 8 -8 15 -20 15 -26 0 -7 -9 -1 -19 13
-18 22 -19 40 -4 40 4 0 4 -3 0 -6z m-973 -80 c3 -8 2 -12 -4 -9 -6 3 -10 10
-10 16 0 14 7 11 14 -7z m931 -14 c-3 -5 -2 -10 2 -10 5 0 14 -9 21 -21 12
-19 11 -19 -7 -10 -11 6 -23 16 -26 21 -6 10 1 30 11 30 3 0 2 -4 -1 -10z
m325 -56 c8 -16 16 -63 17 -104 l3 -75 -23 50 c-13 28 -38 73 -55 102 l-31 52
27 4 c40 6 46 3 62 -29z m-1143 -121 c54 -70 55 -73 59 -150 l4 -78 -35 70
c-33 68 -115 271 -115 284 1 3 8 -7 17 -24 8 -16 40 -62 70 -102z m1026 110
c21 -24 79 -142 73 -151 -2 -4 7 -34 20 -67 26 -64 26 -67 9 44 -6 37 9 12 30
-52 11 -35 15 -61 9 -66 -5 -5 -38 -7 -74 -4 -58 5 -66 8 -68 27 -1 11 -15 68
-32 126 -17 58 -32 110 -33 115 -1 6 -6 15 -10 22 -7 10 7 16 49 22 6 0 18 -7
27 -16z m-237 -22 c-3 -4 -31 -13 -63 -21 -32 -7 -91 -24 -131 -37 -41 -14
-76 -23 -78 -20 -10 9 9 37 29 43 39 13 232 50 240 46 4 -2 5 -7 3 -11z m138
-7 c3 -8 2 -12 -4 -9 -6 3 -10 10 -10 16 0 14 7 11 14 -7z m16 -54 c0 -5 -2
-10 -4 -10 -3 0 -8 5 -11 10 -3 6 -1 10 4 10 6 0 11 -4 11 -10z m-1400 -182
c0 -13 -23 -5 -28 10 -2 7 2 10 12 6 9 -3 16 -11 16 -16z m696 -155 c-6 -73
-12 -108 -16 -93 -9 34 9 210 22 210 2 0 -1 -53 -6 -117z m532 -31 c2 -7 -3
-12 -12 -12 -9 0 -16 7 -16 16 0 17 22 14 28 -4z m-248 -47 c0 -2 -10 -9 -22
-15 -22 -11 -22 -10 -4 4 21 17 26 19 26 11z m-310 -117 c23 -94 31 -118 41
-118 6 0 7 6 3 13 -14 24 5 0 67 -83 l62 -85 -49 42 c-116 98 -143 143 -144
241 0 44 7 40 20 -10z m-113 10 c-3 -8 -6 -5 -6 6 -1 11 2 17 5 13 3 -3 4 -12
1 -19z m143 -229 c0 -6 -4 -7 -10 -4 -5 3 -10 11 -10 16 0 6 5 7 10 4 6 -3 10
-11 10 -16z m-9 -32 c8 -7 34 -47 57 -90 41 -76 41 -78 13 -55 -15 13 -41 48
-57 78 -16 30 -32 57 -36 58 -5 2 -8 8 -8 13 0 12 12 11 31 -4z"/>
<path d="M4926 4837 c3 -10 9 -15 12 -12 3 3 0 11 -7 18 -10 9 -11 8 -5 -6z"/>
<path d="M4960 4770 c6 -11 13 -20 16 -20 2 0 0 9 -6 20 -6 11 -13 20 -16 20
-2 0 0 -9 6 -20z"/>
<path d="M1978 6743 c7 -3 16 -2 19 1 4 3 -2 6 -13 5 -11 0 -14 -3 -6 -6z"/>
<path d="M3169 6733 c-13 -16 -12 -17 4 -4 16 13 21 21 13 21 -2 0 -10 -8 -17
-17z"/>
<path d="M2430 6699 c0 -5 -5 -7 -12 -3 -7 4 -8 3 -4 -5 6 -9 11 -9 22 0 17
14 18 19 4 19 -5 0 -10 -5 -10 -11z"/>
<path d="M3059 6673 c-13 -16 -12 -17 4 -4 9 7 17 15 17 17 0 8 -8 3 -21 -13z"/>
<path d="M3130 6669 c-7 -11 -10 -23 -7 -25 2 -2 9 7 15 21 14 30 7 33 -8 4z"/>
<path d="M1660 6635 c-19 -14 -32 -25 -28 -25 13 0 77 30 83 40 11 18 -19 10
-55 -15z"/>
<path d="M4040 6645 c24 -33 54 -55 75 -55 17 0 17 2 5 13 -8 8 -33 25 -55 38
-35 20 -38 21 -25 4z"/>
<path d="M2412 6581 c-16 -39 -17 -49 -6 -44 17 6 44 54 44 78 0 30 -18 14
-38 -34z"/>
<path d="M3102 6605 c-7 -14 -12 -31 -12 -38 1 -7 7 3 16 22 17 39 13 54 -4
16z"/>
<path d="M6245 6575 c-28 -8 -39 -13 -25 -13 14 0 43 5 65 13 51 17 25 17 -40
0z"/>
<path d="M6035 6545 l-70 -12 50 -1 c28 -1 79 5 115 12 63 13 63 14 20 14 -25
0 -76 -6 -115 -13z"/>
<path d="M5745 6528 c22 -14 34 -16 110 -19 36 -1 62 -10 92 -30 93 -62 106
-60 22 3 -40 30 -58 36 -120 42 -41 4 -85 10 -99 12 -24 5 -24 5 -5 -8z"/>
<path d="M6100 6486 c0 -3 14 -12 30 -21 17 -9 30 -13 30 -11 0 3 -13 12 -30
21 -16 9 -30 13 -30 11z"/>
<path d="M5660 6413 c25 -21 72 -63 105 -93 60 -54 60 -54 15 -6 -25 26 -72
68 -105 93 -49 36 -52 37 -15 6z"/>
<path d="M6170 6446 c0 -3 9 -10 20 -16 11 -6 20 -8 20 -6 0 3 -9 10 -20 16
-11 6 -20 8 -20 6z"/>
<path d="M4529 6340 c27 -36 93 -126 146 -200 52 -74 118 -160 147 -190 28
-30 47 -48 41 -40 -36 53 -319 422 -348 455 -22 24 -16 13 14 -25z"/>
<path d="M2465 6357 c-10 -12 -46 -51 -79 -87 -43 -45 -51 -57 -26 -38 40 29
136 136 129 143 -3 2 -14 -6 -24 -18z"/>
<path d="M2607 6312 c-45 -69 -114 -216 -73 -157 21 31 108 195 103 195 -2 0
-16 -17 -30 -38z"/>
<path d="M6157 6329 c7 -7 15 -10 18 -7 3 3 -2 9 -12 12 -14 6 -15 5 -6 -5z"/>
<path d="M3040 6311 c0 -5 -11 -33 -25 -62 -15 -31 -23 -42 -20 -26 9 48 -2
29 -27 -45 -50 -143 -57 -176 -43 -188 34 -29 23 -134 -37 -340 -22 -74 -46
-157 -54 -185 -8 -27 -12 -56 -9 -63 3 -7 1 -11 -4 -8 -5 3 -9 -4 -8 -17 0
-12 -19 -80 -41 -152 -32 -100 -70 -262 -83 -345 0 -3 -4 4 -9 15 -14 34 -11
117 10 237 21 123 25 139 137 507 3 12 2 12 -7 -1 -14 -23 -74 -187 -116 -318
-41 -131 -44 -97 -5 58 38 150 88 342 96 367 12 35 -55 -88 -84 -155 -43 -101
-67 -207 -70 -319 -1 -39 -9 -109 -17 -154 -7 -45 -14 -98 -14 -117 0 -45 -12
-62 -36 -55 -12 4 -11 1 4 -7 23 -11 23 -14 15 -97 -10 -106 -7 -171 12 -281
31 -178 72 -285 177 -459 21 -34 38 -66 38 -69 0 -9 -83 108 -114 161 -31 52
-45 64 -21 18 51 -100 188 -291 208 -291 4 0 5 5 1 11 -4 7 11 0 32 -15 21
-14 52 -26 68 -26 29 0 29 0 -15 31 -103 73 -174 163 -235 295 -33 70 -44 105
-24 74 7 -12 10 -8 10 14 0 28 3 26 73 -46 74 -76 122 -113 111 -85 -3 8 -18
24 -35 36 -66 49 -117 151 -69 138 11 -3 18 -1 14 4 -3 5 -1 9 5 9 5 0 13 -4
16 -10 3 -5 28 -10 55 -10 l49 0 22 -49 c11 -27 30 -57 40 -67 19 -17 19 -16
0 27 -12 24 -20 55 -20 69 0 14 3 19 6 13 2 -7 14 -13 25 -13 12 0 27 -8 35
-17 13 -17 13 -17 11 2 -2 11 -7 23 -13 27 -5 4 2 6 17 4 15 -1 33 -8 41 -14
11 -9 21 -8 46 4 24 12 46 14 87 9 30 -3 54 -8 54 -9 0 -2 -7 -22 -15 -45 -19
-56 -1 -52 21 4 14 37 21 45 43 46 50 2 56 4 53 17 -2 9 6 8 29 -3 17 -9 33
-14 35 -12 3 2 -11 25 -29 49 -23 30 -32 50 -26 60 9 17 -34 62 -77 79 -16 6
-24 13 -18 16 6 2 36 -5 65 -16 l53 -21 -24 24 c-14 13 -28 22 -32 20 -7 -4
-30 51 -33 79 -3 22 87 -70 137 -139 22 -31 34 -41 39 -32 6 9 -9 31 -40 63
-238 246 -370 517 -477 985 -27 117 -32 196 -15 228 15 29 14 40 -3 17 -13
-18 -14 -18 -20 2 -9 28 0 214 14 283 5 30 21 93 34 140 30 106 39 150 32 150
-3 0 -6 -4 -6 -9z m-326 -768 c-6 -35 -24 -70 -24 -47 0 17 21 84 26 84 3 0 2
-17 -2 -37z m207 0 c-12 -20 -14 -14 -5 12 4 9 9 14 11 11 3 -2 0 -13 -6 -23z
m55 -141 c10 -31 17 -65 16 -75 -1 -10 2 -16 7 -13 5 3 11 -2 14 -12 3 -9 15
-41 26 -69 12 -29 30 -77 42 -105 11 -29 23 -66 25 -82 4 -28 3 -29 -11 -10
-8 10 -17 34 -21 52 -3 17 -10 32 -15 32 -11 0 -11 4 1 -61 15 -81 62 -219 73
-219 6 0 8 -3 5 -6 -3 -3 -32 -1 -65 5 -32 6 -114 20 -183 32 -69 11 -127 23
-129 25 -5 4 -1 22 54 234 27 105 49 167 81 226 24 45 44 89 44 98 0 32 19 6
36 -52z m-147 -543 c59 -14 242 -75 303 -101 41 -17 51 -28 77 -81 16 -34 25
-63 20 -65 -5 -2 -32 1 -59 7 -28 6 -83 10 -123 10 l-72 -1 55 -10 c139 -23
200 -40 200 -54 0 -13 -10 -14 -57 -9 -138 16 -311 45 -352 59 -58 21 -62 20
-51 -9 9 -23 7 -25 -22 -25 l-31 0 6 88 c8 126 27 214 45 207 8 -3 35 -10 61
-16z m301 -45 c104 -17 141 -34 71 -34 -38 0 -42 -2 -31 -15 8 -10 -12 -5 -56
14 -38 16 -88 34 -111 40 -24 7 -43 14 -43 16 0 4 38 0 170 -21z m-271 -230
c2 -2 -5 -4 -16 -4 -12 0 -31 9 -44 20 l-24 20 40 -16 c22 -9 42 -18 44 -20z
m227 -176 c-23 -13 -40 0 -25 18 9 11 15 12 26 2 12 -10 12 -13 -1 -20z"/>
<path d="M1304 6278 l-19 -23 23 19 c21 18 27 26 19 26 -2 0 -12 -10 -23 -22z"/>
<path d="M6260 6296 c0 -18 228 -112 252 -104 6 2 -23 15 -63 30 -41 14 -100
37 -131 52 -32 14 -58 24 -58 22z"/>
<path d="M6277 6249 c7 -7 15 -10 18 -7 3 3 -2 9 -12 12 -14 6 -15 5 -6 -5z"/>
<path d="M1269 6243 c-14 -3 -109 -168 -109 -189 0 -5 20 27 45 71 25 43 55
89 67 102 12 13 20 22 17 22 -2 -1 -11 -3 -20 -6z"/>
<path d="M6787 6196 c-92 -63 -395 -220 -484 -251 -29 -10 -51 -21 -49 -23 10
-10 288 105 375 156 45 25 176 115 196 133 18 17 -3 9 -38 -15z"/>
<path d="M6463 6176 c33 -14 194 -13 208 1 8 8 -18 11 -109 10 -83 -2 -114 -5
-99 -11z"/>
<path d="M2215 6098 c-37 -40 -71 -82 -77 -93 -6 -11 -9 -18 -6 -15 39 42 158
180 154 180 -2 0 -34 -33 -71 -72z"/>
<path d="M3970 6136 c0 -13 234 -146 257 -146 4 0 -33 23 -82 51 -50 28 -101
59 -115 69 -25 17 -60 32 -60 26z"/>
<path d="M6712 6079 c-39 -27 -138 -83 -220 -124 -169 -86 -175 -101 -8 -22
110 53 270 151 296 182 18 21 14 19 -68 -36z"/>
<path d="M5080 6069 c0 -13 47 -117 72 -159 34 -58 61 -133 86 -240 23 -95 50
-244 56 -305 2 -22 3 16 2 85 -2 80 -9 147 -20 185 -34 121 -90 285 -97 285
-4 0 -23 28 -43 63 -41 71 -56 94 -56 86z"/>
<path d="M3011 6034 c0 -11 3 -14 6 -6 3 7 2 16 -1 19 -3 4 -6 -2 -5 -13z"/>
<path d="M5120 6046 c0 -2 8 -10 18 -17 15 -13 16 -12 3 4 -13 16 -21 21 -21
13z"/>
<path d="M6080 6005 c13 -14 26 -25 28 -25 3 0 -5 11 -18 25 -13 14 -26 25
-28 25 -3 0 5 -11 18 -25z"/>
<path d="M1540 5949 l-45 -41 42 32 c37 27 61 51 51 50 -2 0 -23 -19 -48 -41z"/>
<path d="M3660 5976 c0 -2 8 -10 18 -17 15 -13 16 -12 3 4 -13 16 -21 21 -21
13z"/>
<path d="M4789 5943 c30 -59 74 -130 66 -108 -4 11 -8 25 -9 30 -2 12 -68 115
-73 115 -2 0 5 -17 16 -37z"/>
<path d="M6120 5967 c0 -2 14 -13 30 -25 17 -13 30 -19 30 -14 0 4 -13 16 -30
25 -16 10 -30 16 -30 14z"/>
<path d="M5594 5869 c27 -30 51 -56 53 -58 2 -2 3 -2 3 2 0 9 -82 102 -94 106
-6 2 11 -20 38 -50z"/>
<path d="M1469 5893 c-13 -16 -12 -17 4 -4 9 7 17 15 17 17 0 8 -8 3 -21 -13z"/>
<path d="M4360 5885 c14 -16 27 -32 30 -35 3 -3 27 -31 54 -63 47 -56 47 -58
20 -51 -16 4 -65 20 -109 37 -159 58 -207 69 -127 29 40 -21 238 -81 262 -80
8 0 24 -3 35 -8 11 -4 -3 14 -30 42 -28 27 -75 74 -105 104 -30 30 -43 42 -30
25z"/>
<path d="M5021 5905 c1 -19 18 -51 18 -35 0 8 -4 22 -9 30 -5 8 -9 11 -9 5z"/>
<path d="M6098 5903 c12 -2 30 -2 40 0 9 3 -1 5 -23 4 -22 0 -30 -2 -17 -4z"/>
<path d="M4885 5870 c10 -11 20 -20 23 -20 3 0 -3 9 -13 20 -10 11 -20 20 -23
20 -3 0 3 -9 13 -20z"/>
<path d="M3900 5870 c0 -13 52 -92 57 -87 4 4 -46 97 -53 97 -2 0 -4 -5 -4
-10z"/>
<path d="M4474 5866 c11 -9 24 -16 30 -16 12 0 7 5 -24 19 -24 11 -24 11 -6
-3z"/>
<path d="M6290 5865 c-19 -7 -28 -14 -20 -14 8 0 29 6 45 14 39 17 21 18 -25
0z"/>
<path d="M1325 5828 l-40 -43 43 40 c23 21 42 40 42 42 0 8 -9 0 -45 -39z"/>
<path d="M3670 5855 c0 -5 5 -17 10 -25 5 -8 10 -10 10 -5 0 6 -5 17 -10 25
-5 8 -10 11 -10 5z"/>
<path d="M5447 5840 c7 -25 23 -37 23 -17 0 8 -6 20 -14 26 -12 10 -13 8 -9
-9z"/>
<path d="M4910 5836 c0 -2 8 -10 18 -17 15 -13 16 -12 3 4 -13 16 -21 21 -21
13z"/>
<path d="M2806 5795 c-9 -26 -7 -32 5 -12 6 10 9 21 6 23 -2 3 -7 -2 -11 -11z"/>
<path d="M3695 5795 c4 -11 27 -69 50 -130 48 -129 96 -237 102 -232 8 9 -61
197 -104 282 -43 86 -65 123 -48 80z"/>
<path d="M5052 5800 c0 -8 6 -31 13 -50 7 -19 13 -28 13 -20 0 8 -6 31 -13 50
-7 19 -13 28 -13 20z"/>
<path d="M4940 5796 c0 -2 8 -10 18 -17 15 -13 16 -12 3 4 -13 16 -21 21 -21
13z"/>
<path d="M4871 5785 c0 -5 6 -21 14 -35 8 -14 14 -20 14 -15 0 6 -6 21 -14 35
-8 14 -14 21 -14 15z"/>
<path d="M3086 5730 c2 -24 8 -48 14 -54 6 -6 6 3 0 25 -5 19 -11 43 -13 54
-3 11 -3 0 -1 -25z"/>
<path d="M4918 5685 c5 -11 12 -27 15 -35 5 -13 6 -13 6 1 1 8 -6 24 -15 35
-15 19 -15 19 -6 -1z"/>
<path d="M3810 5675 c0 -5 5 -17 10 -25 5 -8 10 -10 10 -5 0 6 -5 17 -10 25
-5 8 -10 11 -10 5z"/>
<path d="M2404 5613 c-21 -27 -28 -39 -16 -29 16 14 22 15 22 6 0 -23 19 3 29
38 5 18 8 32 7 32 -2 0 -21 -21 -42 -47z"/>
<path d="M3831 5625 c0 -5 8 -41 19 -80 10 -38 19 -59 19 -45 0 25 -36 145
-38 125z"/>
<path d="M1431 5589 c-13 -11 -17 -19 -10 -19 19 1 52 27 42 33 -4 3 -19 -3
-32 -14z"/>
<path d="M1338 5553 c7 -3 16 -2 19 1 4 3 -2 6 -13 5 -11 0 -14 -3 -6 -6z"/>
<path d="M2275 5472 l-79 -87 73 70 c59 57 103 109 89 104 -2 0 -39 -40 -83
-87z"/>
<path d="M4960 5540 c6 -11 13 -20 16 -20 2 0 0 9 -6 20 -6 11 -13 20 -16 20
-2 0 0 -9 6 -20z"/>
<path d="M5396 5495 c-9 -90 -7 -265 3 -284 12 -20 24 299 13 329 -7 20 -10
12 -16 -45z"/>
<path d="M1193 5543 c26 -2 67 -2 90 0 23 2 2 3 -48 3 -49 0 -68 -1 -42 -3z"/>
<path d="M5026 5527 c3 -10 9 -15 12 -12 3 3 0 11 -7 18 -10 9 -11 8 -5 -6z"/>
<path d="M5190 5404 c0 -5 7 -18 15 -28 8 -11 15 -16 15 -10 0 5 -7 18 -15 28
-8 11 -15 16 -15 10z"/>
<path d="M5172 5330 c0 -14 2 -19 5 -12 2 6 2 18 0 25 -3 6 -5 1 -5 -13z"/>
<path d="M3231 5325 c0 -5 6 -21 14 -35 8 -14 14 -20 14 -15 0 6 -6 21 -14 35
-8 14 -14 21 -14 15z"/>
<path d="M2600 5253 c-6 -21 -12 -65 -15 -98 l-5 -60 14 70 c8 39 17 82 21 98
11 41 -3 32 -15 -10z"/>
<path d="M5183 5245 c0 -27 2 -38 4 -22 2 15 2 37 0 50 -2 12 -4 0 -4 -28z"/>
<path d="M6140 5280 c0 -5 5 -10 11 -10 5 0 7 5 4 10 -3 6 -8 10 -11 10 -2 0
-4 -4 -4 -10z"/>
<path d="M5091 5225 c0 -5 6 -21 14 -35 8 -14 14 -20 14 -15 0 6 -6 21 -14 35
-8 14 -14 21 -14 15z"/>
<path d="M7807 5075 c-12 -25 -21 -33 -34 -29 -17 5 -17 5 0 -6 20 -13 52 -6
42 10 -3 5 -1 19 5 31 7 11 10 23 8 25 -3 2 -12 -12 -21 -31z"/>
<path d="M2573 5045 c0 -27 2 -38 4 -22 2 15 2 37 0 50 -2 12 -4 0 -4 -28z"/>
<path d="M3577 5053 c25 -63 105 -214 110 -209 2 2 -23 58 -56 125 -60 119
-85 157 -54 84z"/>
<path d="M3862 5005 c33 -47 62 -85 64 -85 11 0 -106 169 -118 170 -4 0 20
-38 54 -85z"/>
<path d="M776 5065 c-9 -26 -7 -32 5 -12 6 10 9 21 6 23 -2 3 -7 -2 -11 -11z"/>
<path d="M7652 4939 c-1 -47 -5 -89 -9 -92 -13 -14 -12 -65 2 -83 14 -18 14
-17 5 9 -7 20 -6 37 3 60 8 21 10 59 6 112 l-5 80 -2 -86z"/>
<path d="M740 4940 c-7 -28 -10 -53 -8 -55 3 -3 10 18 16 47 7 28 11 53 8 55
-2 2 -9 -19 -16 -47z"/>
<path d="M6403 4925 c0 -22 2 -30 4 -17 2 12 2 30 0 40 -3 9 -5 -1 -4 -23z"/>
<path d="M2562 4910 c0 -14 2 -19 5 -12 2 6 2 18 0 25 -3 6 -5 1 -5 -13z"/>
<path d="M5655 4870 c-4 -17 -5 -34 -2 -36 3 -3 8 9 12 26 4 17 5 34 2 36 -3
3 -8 -9 -12 -26z"/>
<path d="M2561 4854 c0 -11 3 -14 6 -6 3 7 2 16 -1 19 -3 4 -6 -2 -5 -13z"/>
<path d="M2573 4795 c0 -22 2 -30 4 -17 2 12 2 30 0 40 -3 9 -5 -1 -4 -23z"/>
<path d="M5260 4761 c0 -48 -47 -290 -65 -336 -8 -22 -23 -53 -31 -68 -9 -16
-14 -31 -11 -33 3 -3 17 19 31 48 15 29 25 44 22 33 -2 -11 -7 -36 -11 -55
-15 -79 -58 -196 -88 -241 -41 -61 -174 -198 -250 -256 -31 -24 -92 -60 -135
-79 -141 -64 -139 -63 -116 -63 23 -1 190 63 211 81 19 15 16 -2 -4 -24 -25
-28 2 -22 50 11 38 26 104 91 92 91 -2 0 13 18 34 40 21 23 41 53 45 68 3 15
26 50 51 77 63 69 45 22 -30 -80 -31 -41 -53 -75 -49 -75 3 0 1 -6 -5 -14 -12
-14 -5 -49 8 -41 4 2 8 -2 8 -10 0 -8 -4 -12 -9 -9 -4 3 -8 -1 -8 -9 0 -17
-78 -98 -133 -138 -21 -15 -52 -31 -68 -34 -17 -4 -28 -9 -26 -12 10 -9 182
29 225 50 61 29 105 85 168 212 76 154 103 269 111 465 5 112 9 144 14 115 4
-22 8 -59 8 -82 1 -24 6 -43 12 -43 15 0 6 117 -15 205 -9 39 -19 106 -23 150
-6 82 -13 113 -13 56z m-10 -324 c0 -44 -34 -159 -63 -213 -22 -40 -21 -32 13
97 16 63 30 124 30 137 0 12 5 22 10 22 6 0 10 -19 10 -43z m-3 -219 c-3 -7
-5 -2 -5 12 0 14 2 19 5 13 2 -7 2 -19 0 -25z m-10 -40 c-3 -8 -6 -5 -6 6 -1
11 2 17 5 13 3 -3 4 -12 1 -19z m-94 -53 c-3 -9 -8 -14 -10 -11 -3 3 -2 9 2
15 9 16 15 13 8 -4z m58 -72 c-12 -20 -14 -14 -5 12 4 9 9 14 11 11 3 -2 0
-13 -6 -23z m-46 -126 c-56 -133 -97 -186 -178 -226 -37 -19 -70 -31 -73 -28
-9 9 148 167 160 160 6 -3 8 -3 4 2 -4 4 0 15 10 24 24 22 87 121 97 151 5 14
10 20 12 14 2 -6 -13 -49 -32 -97z"/>
<path d="M7669 4725 c6 -11 27 -45 46 -75 54 -86 95 -168 95 -190 0 -11 3 -19
8 -18 4 1 17 -3 30 -10 21 -12 33 0 13 12 -5 4 -46 66 -92 139 -45 72 -88 139
-97 147 -13 13 -13 13 -3 -5z"/>
<path d="M4342 4639 c-18 -12 -31 -23 -29 -25 6 -6 75 24 82 36 10 17 -18 11
-53 -11z"/>
<path d="M4485 4633 c-47 -10 -124 -46 -129 -60 -4 -9 -13 -13 -22 -9 -8 3
-12 2 -9 -3 3 -6 -3 -14 -12 -20 -10 -6 -14 -11 -10 -11 4 0 25 11 45 25 31
22 140 61 217 78 11 3 2 5 -20 5 -22 0 -49 -2 -60 -5z"/>
<path d="M3493 4548 c2 -7 14 -12 26 -10 17 3 22 -1 21 -15 -4 -31 -1 -36 14
-24 11 9 14 8 12 -6 0 -10 5 -17 12 -15 7 1 29 -10 50 -25 l36 -28 -33 42
c-19 23 -38 40 -43 36 -6 -3 -5 4 1 15 12 23 2 35 -23 26 -8 -3 -21 -2 -28 2
-22 14 -50 15 -45 2z"/>
<path d="M1745 4409 c-4 -6 -5 -12 -2 -15 2 -3 7 2 10 11 7 17 1 20 -8 4z"/>
<path d="M7821 4344 c0 -11 3 -14 6 -6 3 7 2 16 -1 19 -3 4 -6 -2 -5 -13z"/>
<path d="M1706 4323 c-6 -14 -5 -15 5 -6 7 7 10 15 7 18 -3 3 -9 -2 -12 -12z"/>
<path d="M6655 4313 c-22 -8 -50 -12 -62 -10 -18 3 -20 1 -10 -15 7 -10 20
-18 30 -18 23 0 69 24 86 44 16 19 10 19 -44 -1z"/>
<path d="M7790 4285 c-25 -40 -48 -55 -84 -55 -30 0 -38 -12 -47 -70 -4 -25
-12 -71 -19 -103 -12 -55 -12 -59 9 -78 15 -15 21 -32 21 -65 0 -25 5 -55 11
-66 9 -16 8 -23 -2 -29 -11 -7 -10 -9 5 -9 15 0 17 5 11 28 -3 15 -10 53 -14
85 -4 32 -13 62 -20 67 -13 8 -12 51 4 150 14 82 13 81 47 78 35 -3 60 16 91
70 25 43 14 41 -13 -3z"/>
<path d="M5137 4303 c-4 -3 -7 -11 -7 -17 0 -6 5 -5 12 2 6 6 9 14 7 17 -3 3
-9 2 -12 -2z"/>
<path d="M4577 4197 c18 -20 17 -20 -47 -14 l-65 6 43 -14 c106 -33 289 -27
338 10 18 14 16 15 -21 15 -132 -1 -165 1 -213 9 -52 8 -52 8 -35 -12z"/>
<path d="M7143 4175 c0 -22 2 -30 4 -17 2 12 2 30 0 40 -3 9 -5 -1 -4 -23z"/>
<path d="M2960 4148 c0 -4 17 -10 38 -14 35 -7 35 -8 12 -15 -19 -5 -12 -8 30
-10 73 -4 106 -1 163 12 36 8 46 14 38 22 -13 13 -281 17 -281 5z"/>
<path d="M6671 4124 c0 -11 3 -14 6 -6 3 7 2 16 -1 19 -3 4 -6 -2 -5 -13z"/>
<path d="M7126 4113 c-6 -14 -5 -15 5 -6 7 7 10 15 7 18 -3 3 -9 -2 -12 -12z"/>
<path d="M5066 4103 c-6 -14 -5 -15 5 -6 7 7 10 15 7 18 -3 3 -9 -2 -12 -12z"/>
<path d="M1005 4080 c10 -11 20 -20 23 -20 3 0 -3 9 -13 20 -10 11 -20 20 -23
20 -3 0 3 -9 13 -20z"/>
<path d="M7120 4056 c0 -2 8 -10 18 -17 15 -13 16 -12 3 4 -13 16 -21 21 -21
13z"/>
<path d="M7159 4007 c11 -14 11 -20 0 -34 -12 -16 -12 -17 2 -6 9 7 19 9 24 5
4 -4 3 3 -4 15 -6 12 -17 25 -24 29 -8 5 -7 2 2 -9z"/>
<path d="M6692 3985 c0 -16 2 -22 5 -12 2 9 2 23 0 30 -3 6 -5 -1 -5 -18z"/>
<path d="M2720 3986 c0 -2 8 -10 18 -17 15 -13 16 -12 3 4 -13 16 -21 21 -21
13z"/>
<path d="M7190 3952 c0 -4 14 -27 31 -50 17 -23 28 -42 25 -42 -3 0 5 -10 17
-23 36 -38 31 -23 -19 52 -46 70 -54 79 -54 63z"/>
<path d="M6707 3929 c4 -13 8 -18 11 -10 2 7 -1 18 -6 23 -8 8 -9 4 -5 -13z"/>
<path d="M6706 3875 c-3 -13 -3 -43 0 -65 4 -27 2 -45 -7 -57 -13 -16 -12 -17
3 -5 12 10 16 29 15 82 -1 39 -2 70 -3 70 -1 0 -5 -11 -8 -25z"/>
<path d="M7151 3874 c0 -11 3 -14 6 -6 3 7 2 16 -1 19 -3 4 -6 -2 -5 -13z"/>
<path d="M7310 3770 c6 -11 13 -20 16 -20 2 0 0 9 -6 20 -6 11 -13 20 -16 20
-2 0 0 -9 6 -20z"/>
<path d="M4360 3775 c0 -7 61 -37 66 -33 2 3 -12 12 -31 21 -19 9 -35 15 -35
12z"/>
<path d="M5512 3765 c9 -10 21 -16 28 -13 7 2 -1 10 -16 17 -27 12 -28 11 -12
-4z"/>
<path d="M1353 3753 c9 -2 25 -2 35 0 9 3 1 5 -18 5 -19 0 -27 -2 -17 -5z"/>
<path d="M5944 3707 c57 -32 66 -51 38 -79 l-23 -23 -22 27 c-12 15 -30 37
-40 50 l-18 23 7 -25 c4 -13 17 -33 30 -43 13 -10 24 -24 24 -30 0 -7 -28 -41
-61 -77 -52 -55 -60 -61 -55 -37 4 15 2 27 -4 27 -5 0 -10 -9 -10 -20 0 -21
-48 -121 -63 -131 -5 -3 -2 -9 7 -12 10 -4 18 4 26 28 14 41 88 127 102 118 6
-3 8 -1 5 4 -8 13 99 116 112 109 14 -9 23 42 12 63 -6 10 -29 26 -51 35 -56
22 -62 20 -16 -7z"/>
<path d="M7340 3723 c0 -6 8 -17 18 -24 16 -13 16 -13 2 6 -8 11 -16 22 -17
24 -2 2 -3 0 -3 -6z"/>
<path d="M7694 3696 c24 -33 27 -41 17 -62 -18 -39 -12 -53 6 -15 16 32 16 35
-4 70 -11 19 -27 37 -34 40 -8 2 -1 -13 15 -33z"/>
<path d="M4488 3714 c18 -8 5 -24 -20 -24 -12 0 -19 -2 -16 -5 3 -3 24 -3 47
1 44 7 44 17 1 28 -14 3 -19 3 -12 0z"/>
<path d="M3847 3673 c-31 -79 -30 -114 3 -163 35 -53 41 -31 10 38 -13 29 -17
49 -11 60 10 20 25 102 18 102 -3 0 -12 -17 -20 -37z"/>
<path d="M6681 3694 c0 -11 3 -14 6 -6 3 7 2 16 -1 19 -3 4 -6 -2 -5 -13z"/>
<path d="M5886 3623 c-6 -14 -5 -15 5 -6 7 7 10 15 7 18 -3 3 -9 -2 -12 -12z"/>
<path d="M7409 3615 c5 -11 17 -29 26 -40 l16 -20 -10 20 c-5 11 -17 29 -26
40 l-16 20 10 -20z"/>
<path d="M6020 3580 c6 -11 13 -20 16 -20 2 0 0 9 -6 20 -6 11 -13 20 -16 20
-2 0 0 -9 6 -20z"/>
<path d="M6951 3573 c1 -17 3 -21 6 -10 2 9 9 17 14 17 6 0 7 5 4 10 -12 19
-25 10 -24 -17z"/>
<path d="M5850 3570 c-6 -11 -8 -20 -6 -20 3 0 10 9 16 20 6 11 8 20 6 20 -3
0 -10 -9 -16 -20z"/>
<path d="M7690 3571 c0 -6 4 -13 10 -16 6 -3 7 1 4 9 -7 18 -14 21 -14 7z"/>
<path d="M7661 3476 c-32 -59 -34 -66 -28 -134 3 -40 3 -71 -1 -68 -4 2 -8
-18 -8 -45 -2 -47 -1 -48 15 -28 14 17 15 33 7 118 l-9 98 32 57 c18 31 31 59
29 61 -2 2 -19 -24 -37 -59z"/>
<path d="M1731 3404 c-58 -53 -102 -114 -83 -114 4 0 28 13 53 28 31 20 53 45
72 82 15 29 26 55 23 57 -2 2 -31 -22 -65 -53z"/>
<path d="M6647 3433 c-3 -5 8 -8 25 -9 20 -1 25 2 16 7 -16 11 -35 11 -41 2z"/>
<path d="M7530 3420 c6 -11 13 -20 16 -20 2 0 0 9 -6 20 -6 11 -13 20 -16 20
-2 0 0 -9 6 -20z"/>
<path d="M1605 3342 c-146 -89 -190 -120 -299 -210 -218 -182 -404 -398 -488
-570 -28 -56 -48 -105 -45 -108 2 -3 31 32 63 78 150 213 293 367 494 532 227
188 257 213 325 278 39 37 68 67 65 67 -3 0 -54 -30 -115 -67z"/>
<path d="M6744 3396 c11 -9 24 -16 30 -16 12 0 7 5 -24 19 -24 11 -24 11 -6
-3z"/>
<path d="M6900 3400 c-9 -6 -10 -10 -3 -10 6 0 15 5 18 10 8 12 4 12 -15 0z"/>
<path d="M6810 3365 c14 -8 30 -14 35 -14 6 0 -1 6 -15 14 -14 8 -29 14 -35
14 -5 0 1 -6 15 -14z"/>
<path d="M6890 3363 c0 -6 -6 -13 -12 -15 -9 -2 -6 -10 9 -24 26 -26 36 -11
16 26 -7 14 -13 20 -13 13z"/>
<path d="M5741 3314 c-12 -27 -11 -28 4 -12 10 9 16 21 13 28 -2 7 -10 -1 -17
-16z"/>
<path d="M1670 3289 c-57 -31 -142 -105 -90 -79 45 23 126 78 139 94 17 21 16
20 -49 -15z"/>
<path d="M6977 3289 c7 -7 15 -10 18 -7 3 3 -2 9 -12 12 -14 6 -15 5 -6 -5z"/>
<path d="M6911 3274 c0 -11 3 -14 6 -6 3 7 2 16 -1 19 -3 4 -6 -2 -5 -13z"/>
<path d="M7030 3266 c0 -3 9 -10 20 -16 11 -6 20 -8 20 -6 0 3 -9 10 -20 16
-11 6 -20 8 -20 6z"/>
<path d="M6921 3234 c0 -11 3 -14 6 -6 3 7 2 16 -1 19 -3 4 -6 -2 -5 -13z"/>
<path d="M2438 3223 c7 -3 16 -2 19 1 4 3 -2 6 -13 5 -11 0 -14 -3 -6 -6z"/>
<path d="M2428 3203 c12 -2 30 -2 40 0 9 3 -1 5 -23 4 -22 0 -30 -2 -17 -4z"/>
<path d="M6931 3175 c0 -11 6 -31 14 -45 18 -32 18 -25 0 25 -8 22 -14 31 -14
20z"/>
<path d="M635 3134 c-50 -33 -117 -97 -157 -149 -17 -22 2 -6 43 36 41 42 93
89 117 104 37 24 49 35 39 35 -1 0 -20 -12 -42 -26z"/>
<path d="M3912 3140 l-127 -5 185 -6 c102 -3 191 -7 199 -10 7 -2 15 1 18 8 5
15 -102 20 -275 13z"/>
<path d="M3716 3120 c7 -7 19 -7 35 -1 23 9 22 10 -10 10 -24 1 -32 -2 -25 -9z"/>
<path d="M1365 3047 c-198 -171 -393 -395 -502 -577 l-22 -35 27 1 c15 0 38 6
51 13 13 7 22 9 20 4 -2 -5 -20 -48 -39 -96 -36 -91 -53 -95 -40 -10 4 23 6
43 4 43 -1 0 -16 -25 -34 -56 -36 -65 -49 -65 -27 1 9 25 12 43 6 40 -5 -4 -9
-12 -9 -19 0 -7 -7 -21 -16 -32 -14 -18 -15 -17 -11 21 5 41 3 37 -24 -33 -9
-25 -14 -30 -21 -20 -8 10 -9 9 -5 -3 3 -9 -5 -56 -18 -105 -24 -93 -45 -238
-45 -313 l0 -43 -32 6 c-59 12 -120 49 -190 114 -162 153 -235 440 -165 645
15 43 43 109 62 148 42 85 29 82 -19 -4 -88 -158 -148 -339 -148 -447 0 -39
-2 -49 -8 -35 -14 32 -11 92 6 157 8 33 13 62 10 65 -9 10 -56 -159 -68 -247
-30 -228 71 -403 272 -468 73 -24 239 -47 270 -37 15 5 20 1 24 -17 3 -13 15
-74 27 -136 l21 -113 -101 -95 c-59 -56 -104 -107 -108 -122 -3 -15 -17 -54
-30 -86 -12 -33 -21 -61 -19 -63 2 -2 18 31 35 74 27 67 44 91 119 168 103
107 154 136 299 174 69 18 143 47 205 79 104 55 178 99 178 107 0 6 -133 -61
-207 -105 l-52 -30 -14 27 c-22 45 -48 148 -45 183 2 23 10 36 30 46 15 8 28
17 28 20 0 2 -13 -2 -30 -11 -39 -20 -53 -20 -41 3 5 9 9 71 10 137 3 251 38
415 141 650 55 128 183 332 280 448 18 20 30 37 28 36 -1 0 -30 -23 -63 -52z
m-164 -230 c-10 -9 -11 -8 -5 6 3 10 9 15 12 12 3 -3 0 -11 -7 -18z m-273
-1022 c-52 -29 -170 -47 -303 -46 -71 0 -143 4 -160 9 -21 6 25 9 148 11 173
2 245 9 297 30 38 15 49 12 18 -4z m-528 -10 c19 -7 28 -14 20 -14 -8 0 -28 6
-45 14 -39 17 -21 18 25 0z"/>
<path d="M6961 3045 c0 -39 6 -81 19 -115 12 -34 19 -46 20 -32 0 13 -5 33
-12 45 -6 12 -15 54 -18 92 l-7 70 -2 -60z"/>
<path d="M7740 3080 c6 -11 13 -20 16 -20 2 0 0 9 -6 20 -6 11 -13 20 -16 20
-2 0 0 -9 6 -20z"/>
<path d="M7613 3040 c0 -30 2 -43 4 -27 2 15 2 39 0 55 -2 15 -4 2 -4 -28z"/>
<path d="M7769 3035 c5 -11 17 -29 26 -40 l16 -20 -10 20 c-5 11 -17 29 -26
40 l-16 20 10 -20z"/>
<path d="M7596 2965 c-9 -26 -7 -32 5 -12 6 10 9 21 6 23 -2 3 -7 -2 -11 -11z"/>
<path d="M6991 2834 c0 -12 8 -32 19 -45 10 -13 19 -19 20 -13 0 6 -6 17 -14
24 -8 6 -17 21 -19 33 l-4 22 -2 -21z"/>
<path d="M7025 2750 c-3 -5 -1 -10 4 -10 6 0 11 5 11 10 0 6 -2 10 -4 10 -3 0
-8 -4 -11 -10z"/>
<path d="M7561 2694 c0 -11 3 -14 6 -6 3 7 2 16 -1 19 -3 4 -6 -2 -5 -13z"/>
<path d="M7044 2694 c-7 -3 -2 -30 13 -77 23 -70 24 -91 8 -131 -8 -17 -6 -17
13 2 26 26 27 47 7 95 -8 20 -15 48 -15 62 0 17 -4 24 -11 19 -8 -4 -9 0 -4
15 3 11 5 21 3 20 -2 0 -8 -3 -14 -5z"/>
<path d="M7535 2650 c-15 -17 -16 -23 -5 -33 10 -9 11 -9 5 1 -4 8 0 21 11 33
9 10 15 19 12 19 -3 0 -13 -9 -23 -20z"/>
<path d="M7560 2570 c6 -11 13 -20 16 -20 2 0 0 9 -6 20 -6 11 -13 20 -16 20
-2 0 0 -9 6 -20z"/>
<path d="M7600 2510 c6 -11 13 -20 16 -20 2 0 0 9 -6 20 -6 11 -13 20 -16 20
-2 0 0 -9 6 -20z"/>
<path d="M6478 2451 c-1 -32 0 -72 3 -87 4 -17 7 8 8 59 1 99 -5 117 -11 28z"/>
<path d="M6550 2467 c0 -2 15 -16 33 -33 l32 -29 -29 33 c-28 30 -36 37 -36
29z"/>
<path d="M7047 2448 c-6 -17 11 -48 25 -48 7 0 5 7 -4 18 -9 9 -13 23 -11 30
3 6 2 12 0 12 -3 0 -7 -6 -10 -12z"/>
<path d="M741 2369 c-6 -18 -11 -37 -10 -43 0 -6 7 7 15 28 8 22 12 41 10 43
-2 2 -9 -10 -15 -28z"/>
<path d="M6170 2381 c0 -5 7 -12 16 -15 14 -5 15 -4 4 9 -14 17 -20 19 -20 6z"/>
<path d="M6655 2370 c10 -11 20 -20 23 -20 3 0 -3 9 -13 20 -10 11 -20 20 -23
20 -3 0 3 -9 13 -20z"/>
<path d="M6226 2325 c9 -14 19 -24 21 -21 7 7 -16 46 -28 46 -5 0 -2 -11 7
-25z"/>
<path d="M6700 2336 c0 -2 8 -10 18 -17 15 -13 16 -12 3 4 -13 16 -21 21 -21
13z"/>
<path d="M7745 2286 c10 -14 19 -26 22 -26 7 0 -17 39 -28 46 -6 3 -3 -5 6
-20z"/>
<path d="M6770 2275 c13 -14 26 -25 28 -25 3 0 -5 11 -18 25 -13 14 -26 25
-28 25 -3 0 5 -11 18 -25z"/>
<path d="M7800 2201 c5 -11 15 -23 21 -27 6 -3 3 5 -6 20 -20 30 -30 35 -15 7z"/>
<path d="M7072 2180 c0 -14 2 -19 5 -12 2 6 2 18 0 25 -3 6 -5 1 -5 -13z"/>
<path d="M7856 2115 c24 -39 24 -40 24 -28 0 6 -9 21 -21 34 l-20 24 17 -30z"/>
<path d="M1740 2013 c0 -6 -12 -28 -26 -49 -15 -21 -19 -32 -10 -24 21 17 49
70 42 78 -3 3 -6 1 -6 -5z"/>
<path d="M1580 1860 c-9 -6 -10 -10 -3 -10 6 0 15 5 18 10 8 12 4 12 -15 0z"/>
<path d="M1514 1824 c-18 -14 -18 -15 4 -4 12 6 22 13 22 15 0 8 -5 6 -26 -11z"/>
<path d="M7872 1720 c0 -19 2 -27 5 -17 2 9 2 25 0 35 -3 9 -5 1 -5 -18z"/>
<path d="M6652 1617 c26 -25 76 -58 110 -75 87 -40 289 -193 277 -208 -7 -8 3
-23 32 -48 33 -28 46 -33 60 -26 29 16 38 12 96 -42 31 -29 51 -44 45 -33 -23
41 -48 64 -98 89 -29 14 -73 44 -98 67 -77 70 -227 176 -311 220 -44 23 -98
55 -120 71 -38 28 -38 28 7 -15z"/>
<path d="M874 1471 c-54 -20 -114 -49 -114 -56 0 -2 30 8 68 22 37 14 85 32
107 39 30 9 34 13 15 13 -14 0 -48 -9 -76 -18z"/>
<path d="M6820 1461 c14 -12 34 -27 45 -33 17 -9 18 -9 8 3 -6 8 -26 22 -45
32 l-33 19 25 -21z"/>
<path d="M7202 1325 c0 -16 2 -22 5 -12 2 9 2 23 0 30 -3 6 -5 -1 -5 -18z"/>
<path d="M7243 1126 c75 -111 92 -152 105 -256 l9 -75 1 75 c2 100 -19 157
-96 257 -87 115 -97 114 -19 -1z"/>
<path d="M7136 1197 c3 -10 9 -15 12 -12 3 3 0 11 -7 18 -10 9 -11 8 -5 -6z"/>
<path d="M452 1050 c0 -14 2 -19 5 -12 2 6 2 18 0 25 -3 6 -5 1 -5 -13z"/>
<path d="M7485 505 c4 -11 27 -96 52 -190 76 -286 85 -315 100 -315 9 0 12 7
9 18 -3 9 -15 53 -26 97 -24 93 -118 373 -132 395 -7 11 -8 10 -3 -5z"/>
<path d="M7455 445 c3 -16 11 -77 20 -135 16 -112 33 -182 34 -144 1 32 -38
266 -49 289 -7 16 -8 14 -5 -10z"/>
<path d="M7417 422 c6 -46 -9 -172 -38 -322 -16 -85 -17 -112 -5 -99 3 2 17
87 32 188 25 163 29 181 42 165 13 -18 14 -17 7 6 -5 14 -16 43 -25 65 l-18
40 5 -43z"/>
</g>
</svg>
